<svg width="20" height="20" viewBox="0 0 20 20" fill="none" xmlns="http://www.w3.org/2000/svg">
  <g clip-path="url(#clip0_0_332)">
    <path d="M15.9185 2.45508C14.3431 0.872921 12.2443 0.00157482 10.0086 0.00157482H9.999C5.49712 -0.0905673 1.54758 3.87408 1.64027 8.37432C1.75811 11.552 4.81513 15.5877 7.19575 18.6881C7.89488 19.5233 8.91356 20 10.0079 20C11.1407 20 12.1924 19.4896 12.8934 18.5996C14.6594 16.405 18.4729 11.1265 18.3578 8.37424C18.3578 6.13701 17.4915 4.03489 15.9185 2.45508ZM11.666 17.6329C10.8587 18.6978 9.16042 18.6997 8.35278 17.6347C5.12476 13.5243 3.20259 10.1012 3.20259 8.37428C3.20259 4.61907 6.25144 1.56401 9.999 1.56401H10.0086C13.7509 1.56401 16.7954 4.61911 16.7954 8.37428C16.7954 10.12 14.9258 13.4946 11.666 17.6329ZM10.0429 11.6803C8.2122 11.6803 6.72281 10.191 6.72281 8.36026C6.90518 3.95572 13.1813 3.95701 13.363 8.3603C13.363 10.191 11.8736 11.6803 10.0429 11.6803ZM10.0429 6.60257C9.07371 6.60257 8.28521 7.39107 8.28521 8.36026C8.38176 10.6921 11.7044 10.6914 11.8006 8.36026C11.8006 7.39107 11.0121 6.60257 10.0429 6.60257Z" fill="#041E42"/>
  </g>
  <defs>
    <clipPath id="clip0_0_332">
      <rect width="20" height="20" fill="white"/>
    </clipPath>
  </defs>
</svg>
