<svg width="20" height="20" viewBox="0 0 20 20" fill="none" xmlns="http://www.w3.org/2000/svg">
<g clip-path="url(#clip0_132_7303)">
<path d="M9.99844 20C8.70532 20 7.65327 18.948 7.65327 17.6549V17.6353C7.65327 17.3569 7.48446 17.1108 7.22317 17.0082C6.50758 16.7272 5.84054 16.3388 5.24041 15.8537C5.01934 15.675 4.72005 15.6482 4.47799 15.7856C4.47721 15.7861 4.4742 15.7878 4.47342 15.7882C3.34723 16.4229 1.91226 16.0258 1.2748 14.9031C0.965709 14.3588 0.887576 13.7269 1.05483 13.124C1.22243 12.5198 1.61603 12.0174 2.16315 11.7091L2.17289 11.7036C2.41045 11.5686 2.54522 11.3007 2.50832 11.0369C2.40885 10.3272 2.411 9.59514 2.51493 8.88612C2.55417 8.61787 2.41694 8.34477 2.17343 8.20649L2.16065 8.19922C1.61603 7.89235 1.22243 7.3899 1.05483 6.78578C0.887576 6.18284 0.965709 5.55101 1.2748 5.00666C1.9123 3.88395 3.34727 3.48699 4.47342 4.12151L4.52044 4.14821C4.76074 4.2847 5.05967 4.25835 5.28211 4.08114C5.87067 3.61226 6.52275 3.23551 7.22028 2.96132C7.48329 2.8579 7.65324 2.6113 7.65324 2.33305C7.78214 -0.778406 12.2154 -0.77696 12.3436 2.33305V2.34876C12.3436 2.62549 12.5122 2.87158 12.7732 2.97574C13.4631 3.25103 14.108 3.62684 14.6899 4.09271C14.9128 4.27117 15.2122 4.29826 15.4526 4.16177L15.5211 4.12284C16.6497 3.48699 18.0846 3.88403 18.722 5.0067C19.0311 5.55101 19.1093 6.18284 18.942 6.78578C18.7744 7.3899 18.3808 7.89235 17.8337 8.20062L17.7801 8.23107C17.5413 8.36666 17.4064 8.63452 17.4446 8.89761C17.5458 9.59608 17.5483 10.317 17.4524 11.0162C17.4162 11.2806 17.5509 11.5485 17.7877 11.6829L17.8349 11.7097C18.3814 12.0181 18.7745 12.5203 18.942 13.1239C19.5036 15.1196 17.3245 16.809 15.5234 15.7882L15.4962 15.7728C15.2534 15.6349 14.9525 15.6629 14.7293 15.844C14.1363 16.3253 13.4773 16.7121 12.7705 16.9938C12.5112 17.0971 12.3436 17.3428 12.3436 17.6196V17.6549C12.3436 18.948 11.2916 20 9.99844 20ZM4.80894 14.1332C5.31088 14.1332 5.80993 14.3037 6.22327 14.6378C6.69914 15.0224 7.22778 15.3303 7.79461 15.5529C8.65853 15.8922 9.21672 16.7095 9.21672 17.6353V17.6549C9.25979 18.6922 10.7375 18.6914 10.7802 17.6549V17.6196C10.7802 16.6989 11.3342 15.8831 12.1916 15.5414C12.7516 15.3183 13.2739 15.0116 13.7441 14.6301C14.4708 14.0403 15.4614 13.9551 16.268 14.4131L16.293 14.4273C16.6687 14.6389 17.1493 14.5066 17.3625 14.1311C17.4649 13.9507 17.4908 13.7415 17.4354 13.5419C17.3798 13.3412 17.2487 13.174 17.0662 13.0712C17.0654 13.0708 17.0646 13.0704 17.0638 13.0699L17.0155 13.0425C16.2159 12.5883 15.7793 11.7097 15.9034 10.8041C15.9795 10.2494 15.9776 9.6757 15.8972 9.12157C15.7677 8.22673 16.214 7.32255 17.008 6.87166L17.0639 6.83992C17.2487 6.73579 17.3798 6.56866 17.4355 6.36791C17.4909 6.16834 17.465 5.95911 17.3626 5.77877C17.1493 5.40323 16.6686 5.271 16.2909 5.48371L16.2247 5.52135C15.4243 5.97584 14.4385 5.89415 13.7129 5.31329C13.2515 4.94389 12.7404 4.64601 12.1939 4.42791C11.3351 4.08524 10.7802 3.26916 10.7802 2.34884V2.33309C10.7373 1.29613 9.25964 1.29617 9.21676 2.33309C9.21676 3.25849 8.65763 4.07625 7.79238 4.41638C7.23982 4.63358 6.7231 4.93224 6.25641 5.30399C5.53168 5.88141 4.54729 5.96142 3.74857 5.50782L3.70385 5.48246C3.32831 5.27088 2.84767 5.40319 2.63442 5.77869C2.53201 5.95907 2.5061 6.1683 2.56144 6.36787C2.61714 6.56858 2.74827 6.73575 2.93073 6.83855L2.94585 6.84711C3.74521 7.3011 4.19388 8.21153 4.062 9.11246C3.97957 9.67492 3.97785 10.2573 4.0568 10.8202C4.18367 11.7271 3.74735 12.6074 2.94515 13.063L2.93311 13.0698C2.74831 13.174 2.61718 13.3411 2.56148 13.5419C2.5061 13.7414 2.53201 13.9507 2.63442 14.131C2.84759 14.5065 3.32827 14.6388 3.70604 14.4261C4.05164 14.2298 4.43109 14.1332 4.80894 14.1332ZM9.99844 14.098C7.73547 14.098 5.8944 12.2569 5.8944 9.99398C6.11985 4.54939 13.8779 4.55099 14.1025 9.99401C14.1025 12.2569 12.2614 14.098 9.99844 14.098ZM9.99844 7.45338C8.59756 7.45338 7.45784 8.59309 7.45784 9.99398C7.59742 13.3644 12.4 13.3634 12.539 9.99398C12.539 8.59305 11.3993 7.45338 9.99844 7.45338Z" fill="#041E42"/>
</g>
<defs>
<clipPath id="clip0_132_7303">
<rect width="20" height="20" fill="white"/>
</clipPath>
</defs>
</svg>
