<svg width="22" height="22" viewBox="0 0 22 22" fill="none" xmlns="http://www.w3.org/2000/svg">
<path fill-rule="evenodd" clip-rule="evenodd" d="M12.4238 19.9408C12.267 19.976 12.1043 19.994 11.9378 19.994C9.6285 20 5.0655 20 2.7555 20C1.55475 20 0.565501 19.058 0.507001 17.8587C0.507001 17.852 0.507001 17.8445 0.506251 17.8377C0.480751 16.583 0.519751 14.636 0.881251 12.4415C1.0725 11.282 2.06475 9.824 3.07575 9.20825C3.117 9.1835 3.1575 9.15875 3.198 9.13475C3.45525 8.981 3.78 8.99525 4.023 9.17225C4.956 9.85025 6.10425 10.25 7.34475 10.25C8.58525 10.25 9.7335 9.85025 10.6665 9.17225C10.908 8.99675 11.2298 8.98175 11.487 9.1325C11.529 9.15725 11.571 9.18275 11.6138 9.20825C12.1268 9.521 12.6413 10.0445 13.0425 10.64C13.875 10.154 14.8425 9.875 15.8753 9.875C18.9795 9.875 21.5003 12.3958 21.5003 15.5C21.5003 17.4522 20.5035 19.1742 18.9908 20.183C18.9 20.2437 18.8063 20.3022 18.7118 20.3577C17.8785 20.8452 16.9095 21.125 15.8753 21.125C14.5748 21.125 13.377 20.6833 12.4238 19.9408ZM11.856 11.5655C11.6423 11.2302 11.3805 10.916 11.103 10.6842C10.0103 11.36 8.7225 11.75 7.34475 11.75C5.96625 11.75 4.6785 11.3593 3.58575 10.6835C2.99925 11.1658 2.47425 12.0013 2.36175 12.6852C2.01975 14.7612 1.98225 16.604 2.00625 17.8032C2.03475 18.1947 2.36025 18.5 2.75475 18.5C4.815 18.5 8.6685 18.5 11.115 18.4963C10.8533 18.0815 10.6448 17.6308 10.4978 17.153C10.3365 16.6303 10.2503 16.0752 10.2503 15.5C10.2503 15.1595 10.2803 14.8265 10.3388 14.5033C10.542 13.3707 11.0835 12.3552 11.856 11.5655ZM13.092 18.5427C13.8255 19.2148 14.8028 19.625 15.8753 19.625C16.6328 19.625 17.343 19.4202 17.9535 19.0632C18.0233 19.022 18.0915 18.9792 18.159 18.935C19.2683 18.1947 20.0003 16.9325 20.0003 15.5C20.0003 13.223 18.1523 11.375 15.8753 11.375C14.8875 11.375 13.9808 11.723 13.2705 12.3027C12.5228 12.9125 11.9925 13.7795 11.8148 14.768C11.7728 15.005 11.7503 15.2502 11.7503 15.5C11.7503 15.9215 11.8133 16.3287 11.931 16.712C12.15 17.423 12.5565 18.053 13.092 18.5427ZM15.1268 18.2547C14.7488 18.1632 14.3903 18.014 14.1015 17.819C13.7588 17.5872 13.668 17.1208 13.899 16.778C14.1308 16.4345 14.5973 16.3438 14.9408 16.5755C15.2535 16.7862 15.7223 16.9048 16.1138 16.8515C16.302 16.826 16.4798 16.7465 16.4798 16.52C16.4798 16.4893 16.449 16.4818 16.4258 16.4683C16.356 16.4285 16.2758 16.3977 16.191 16.3693C15.9 16.2718 15.567 16.2073 15.2648 16.1188C14.3925 15.8645 13.7708 15.3973 13.7708 14.489C13.7708 14.0308 13.9058 13.6707 14.1143 13.391C14.3565 13.0647 14.7105 12.8405 15.1283 12.7257C15.1613 12.3425 15.4838 12.0417 15.8753 12.0417C16.272 12.0417 16.5975 12.3507 16.6238 12.7415C17.0048 12.836 17.3678 12.9935 17.6588 13.1968C17.9985 13.4338 18.081 13.9018 17.844 14.2415C17.607 14.5805 17.139 14.6638 16.8 14.4268C16.491 14.2108 16.0268 14.0952 15.6405 14.1493C15.45 14.1755 15.2708 14.2603 15.2708 14.489C15.2708 14.5198 15.3015 14.5273 15.3248 14.5408C15.3945 14.5813 15.4748 14.6113 15.5595 14.6398C15.8505 14.7373 16.1835 14.8018 16.4858 14.8903C17.358 15.1445 17.9798 15.6118 17.9798 16.52C17.9798 17.4478 17.4788 17.981 16.7858 18.2262C16.7333 18.245 16.6785 18.2615 16.6223 18.2757C16.5878 18.6583 16.266 18.9583 15.8753 18.9583C15.477 18.9583 15.1508 18.647 15.1268 18.2547ZM7.34475 0.5C9.6015 0.5 11.4345 2.33225 11.4345 4.589C11.4345 6.8465 9.6015 8.67875 7.34475 8.67875C5.088 8.67875 3.25575 6.8465 3.25575 4.589C3.25575 2.33225 5.088 0.5 7.34475 0.5ZM7.34475 2C5.916 2 4.75575 3.16025 4.75575 4.589C4.75575 6.0185 5.916 7.17875 7.34475 7.17875C8.77425 7.17875 9.9345 6.0185 9.9345 4.589C9.9345 3.16025 8.77425 2 7.34475 2Z" fill="black"/>
</svg>
