<svg width="22" height="22" viewBox="0 0 22 22" fill="none" xmlns="http://www.w3.org/2000/svg">
<path d="M14.6234 3.55371C17.2175 3.55371 19.3198 5.68841 19.3198 8.67701C19.3198 14.6542 12.9157 18.0698 10.781 19.3506C8.6463 18.0698 2.24219 14.6542 2.24219 8.67701C2.24219 5.68841 4.3769 3.55371 6.93853 3.55371C8.52675 3.55371 9.92712 4.40759 10.781 5.26147C11.6348 4.40759 13.0352 3.55371 14.6234 3.55371ZM11.5785 16.8777C12.3307 16.403 13.0096 15.9308 13.6449 15.4253C16.1903 13.4016 17.612 11.19 17.612 8.67701C17.612 6.66184 16.2996 5.26147 14.6234 5.26147C13.7046 5.26147 12.7107 5.74818 11.9883 6.46886L10.781 7.67625L9.57361 6.46886C8.85123 5.74818 7.85731 5.26147 6.93853 5.26147C5.282 5.26147 3.94996 6.6755 3.94996 8.67701C3.94996 11.1909 5.37251 13.4016 7.91623 15.4253C8.55237 15.9308 9.23121 16.403 9.98348 16.8769C10.2387 17.0383 10.4915 17.1928 10.781 17.3653C11.0704 17.1928 11.3232 17.0383 11.5785 16.8777Z" fill="#041E42"/>
</svg>
