<svg width="30" height="24" viewBox="0 0 30 24" fill="none" xmlns="http://www.w3.org/2000/svg">
<path d="M30 4.47148V3.99809C30 2.21572 28.5499 0.765686 26.7676 0.765686H3.23241C1.45003 0.765686 0 2.21572 0 3.99809V4.47148V4.47493V20.0021C0 21.7844 1.45003 23.2343 3.23241 23.2343H26.7678C28.55 23.2343 30 21.7844 30 20.0021V4.47493C30 4.47382 30 4.47265 30 4.47148ZM3.23241 2.52351H26.7676C27.5806 2.52351 28.2422 3.18498 28.2422 3.99809V3.9985L16.4708 11.846C15.6873 12.3684 14.3128 12.3683 13.5294 11.8461L1.75783 3.99845V3.99804C1.75783 3.18498 2.4193 2.52351 3.23241 2.52351ZM26.7678 21.4765H3.23241C2.4193 21.4765 1.75783 20.8151 1.75783 20.0021V6.11106L12.5543 13.3087C13.2401 13.7659 14.1199 13.9944 15.0001 13.9944C15.88 13.9944 16.7602 13.7658 17.4459 13.3087L28.2422 6.11106V20.0021C28.2422 20.8151 27.5807 21.4765 26.7678 21.4765Z" fill="#041E42"/>
</svg>
