<svg width="10" height="6" viewBox="0 0 10 6" fill="none"
    xmlns="http://www.w3.org/2000/svg">
    <path d="M5.09819 5.36424L8.88552 1.57685C8.97319 1.48925 9.02148 1.37231 9.02148 1.24763C9.02148 1.12294 8.97319 1.00601 8.88552 0.918408L8.60667 0.639492C8.42497 0.458 8.12966 0.458 7.94824 0.639492L4.76787 3.81986L1.58397 0.635963C1.4963 0.548365 1.37943 0.5 1.25482 0.5C1.13006 0.5 1.0132 0.548365 0.92546 0.635963L0.646683 0.914879C0.559015 1.00255 0.510719 1.11941 0.510719 1.2441C0.510719 1.36878 0.559015 1.48572 0.646683 1.57332L4.43747 5.36424C4.52542 5.45205 4.64283 5.50028 4.76766 5.5C4.89297 5.50028 5.01032 5.45205 5.09819 5.36424Z" fill="#041E42"/>
</svg>
