<svg width="40" height="40" viewBox="0 0 40 40" fill="none" xmlns="http://www.w3.org/2000/svg">
<rect width="40" height="40" rx="5" fill="#F3F5F6"/>
<path d="M26.25 14.5H13.75C13.4048 14.5 13.125 14.7798 13.125 15.125C13.125 15.4702 13.4048 15.75 13.75 15.75H14.375V24.875C14.375 26.5981 15.7769 28 17.5 28H22.5C24.2231 28 25.625 26.5981 25.625 24.875V15.75H26.25C26.5952 15.75 26.875 15.4702 26.875 15.125C26.875 14.7798 26.5952 14.5 26.25 14.5ZM24.375 24.875C24.375 25.9089 23.5339 26.75 22.5 26.75H17.5C16.4661 26.75 15.625 25.9089 15.625 24.875V15.75H24.375V24.875Z" fill="#626974"/>
<path d="M21.25 13.25H18.75C18.4048 13.25 18.125 12.9702 18.125 12.625C18.125 12.2798 18.4048 12 18.75 12H21.25C21.5952 12 21.875 12.2798 21.875 12.625C21.875 12.9702 21.5952 13.25 21.25 13.25Z" fill="#626974"/>
<path d="M20 24.25C19.6548 24.25 19.375 23.9702 19.375 23.625V18.875C19.375 18.5298 19.6548 18.25 20 18.25C20.3452 18.25 20.625 18.5298 20.625 18.875V23.625C20.625 23.9702 20.3452 24.25 20 24.25Z" fill="#626974"/>
<path d="M22.5 24.25C22.1548 24.25 21.875 23.9702 21.875 23.625V18.875C21.875 18.5298 22.1548 18.25 22.5 18.25C22.8452 18.25 23.125 18.5298 23.125 18.875V23.625C23.125 23.9702 22.8452 24.25 22.5 24.25Z" fill="#626974"/>
<path d="M17.5 24.25C17.1548 24.25 16.875 23.9702 16.875 23.625V18.875C16.875 18.5298 17.1548 18.25 17.5 18.25C17.8452 18.25 18.125 18.5298 18.125 18.875V23.625C18.125 23.9702 17.8452 24.25 17.5 24.25Z" fill="#626974"/>
</svg>
