<svg width="40" height="40" viewBox="0 0 40 40" fill="none" xmlns="http://www.w3.org/2000/svg">
<rect width="40" height="40" rx="5" fill="#F3F5F6"/>
<g clip-path="url(#clip0_1_5344)">
<path d="M12.6252 27.9999C12.4602 27.9999 12.3001 27.9345 12.1816 27.8153C12.0364 27.669 11.9725 27.4606 12.011 27.2581L12.5547 24.3929C12.555 24.3909 12.5554 24.3889 12.5558 24.3869C12.83 23.0153 13.498 21.7675 14.4877 20.779L20.189 15.144C20.4346 14.9013 20.8305 14.9036 21.0732 15.1492C21.316 15.3948 21.3136 15.7907 21.068 16.0334L15.3681 21.667C14.5564 22.4791 14.0082 23.5032 13.7826 24.629L13.4094 26.5957L15.3896 26.2338C16.5166 26.0076 17.5416 25.458 18.3538 24.6447L23.0523 20.0059C23.373 19.6866 23.3761 19.1609 23.0575 18.8359L21.9316 17.6823C21.6905 17.4351 21.6953 17.0393 21.9424 16.7981C22.1896 16.5569 22.5854 16.5617 22.8266 16.8089L23.9515 17.9615C24.7481 18.7741 24.7402 20.09 23.9328 20.8939L19.234 25.533C18.246 26.5204 16.9998 27.1872 15.6299 27.461C15.6265 27.4617 15.6231 27.4624 15.6198 27.463L12.7376 27.9898C12.7002 27.9965 12.6626 27.9999 12.6252 27.9999ZM16.9752 24.5342C17.2193 24.29 17.2193 23.8941 16.9752 23.6499L16.3499 23.0247C15.7399 22.4614 14.9027 23.2996 15.4657 23.909L16.0909 24.5342C16.213 24.6563 16.373 24.7173 16.533 24.7173C16.6931 24.7173 16.8531 24.6563 16.9752 24.5342ZM26.4733 18.3483L27.0364 17.7136C28.3266 16.4613 28.3203 14.2224 27.0226 12.9773C25.7723 11.6742 23.5226 11.6743 22.2724 12.9773C22.2633 12.9863 21.8483 13.455 21.8483 13.455C21.6195 13.7136 21.6438 14.1088 21.9024 14.3375C22.161 14.5663 22.5561 14.5421 22.785 14.2835L23.1693 13.8489C23.9561 13.0428 25.3582 13.0484 26.1383 13.8615C26.9563 14.6463 26.9563 16.0585 26.1383 16.8433C26.1296 16.8521 25.5378 17.5184 25.5378 17.5184C25.3087 17.7767 25.3323 18.1719 25.5906 18.4011C25.7097 18.5067 25.8578 18.5586 26.0053 18.5586C26.1779 18.5586 26.3498 18.4876 26.4733 18.3483Z" fill="#626974"/>
</g>
<defs>
<clipPath id="clip0_1_5344">
<rect width="16" height="16" fill="white" transform="translate(12 12)"/>
</clipPath>
</defs>
</svg>
