<svg width="20" height="20" viewBox="0 0 20 20" fill="none"
    xmlns="http://www.w3.org/2000/svg">
    <g clip-path="url(#clip0_132_7291)">
        <path d="M15.3125 19.9981H4.6875C2.10281 19.9981 0 17.8953 0 15.3106V8.73749C0 7.28472 0.689649 5.8914 1.84477 5.01034L7.15727 0.958428C8.83105 -0.318174 11.1689 -0.318174 12.8427 0.958428L14.5312 2.24515V1.24808C14.5725 0.211514 16.0529 0.212295 16.0938 1.24808V3.82272C16.0938 4.11972 15.9254 4.39101 15.6592 4.52284C15.393 4.65464 15.0752 4.62409 14.8389 4.44413L11.8954 2.20104C10.7793 1.34979 9.22063 1.34979 8.1048 2.20085L2.7923 6.25276C2.02227 6.84007 1.5625 7.76894 1.5625 8.73749V15.3106C1.5625 17.0337 2.96438 18.4356 4.6875 18.4356H15.3125C17.0356 18.4356 18.4375 17.0337 18.4375 15.3106V8.73749C18.4375 7.75706 17.9829 6.82503 17.2215 6.24425C16.8784 5.98257 16.8125 5.49233 17.0741 5.14929C17.3358 4.8062 17.8261 4.74022 18.1691 5.0019C19.3155 5.87628 20 7.27276 20 8.73749V15.3106C20 17.8953 17.8972 19.9981 15.3125 19.9981V19.9981ZM8.4375 9.02151C7.89816 9.02151 7.46094 9.45874 7.46094 9.99808C7.51254 11.2938 9.36293 11.2928 9.41406 9.99808C9.41406 9.4587 8.97684 9.02151 8.4375 9.02151ZM12.5391 9.99804C12.4875 11.2937 10.6371 11.2928 10.5859 9.99804C10.6375 8.70233 12.4879 8.70335 12.5391 9.99804ZM9.41406 13.123C9.36246 14.4187 7.51207 14.4178 7.46094 13.123C7.51254 11.8273 9.36293 11.8283 9.41406 13.123ZM12.5391 13.123C12.4875 14.4187 10.6371 14.4178 10.5859 13.123C10.6375 11.8273 12.4879 11.8283 12.5391 13.123Z" fill="black"/>
    </g>
    <defs>
        <clipPath id="clip0_132_7291">
            <rect width="20" height="20" fill="white"/>
        </clipPath>
    </defs>
</svg>