<svg width="13" height="20" viewBox="0 0 13 20" fill="none" xmlns="http://www.w3.org/2000/svg">
<path d="M1.19553 14.286C1.19553 14.0153 1.28886 13.7867 1.47553 13.6C1.67153 13.404 1.90486 13.306 2.17553 13.306C2.46486 13.306 2.70286 13.404 2.88953 13.6C3.0762 13.7867 3.16953 14.0153 3.16953 14.286C3.16953 14.5473 3.0762 14.776 2.88953 14.972C2.70286 15.168 2.46486 15.266 2.17553 15.266C1.90486 15.266 1.67153 15.168 1.47553 14.972C1.28886 14.776 1.19553 14.5473 1.19553 14.286ZM5.51584 14.286C5.51584 14.0153 5.60918 13.7867 5.79584 13.6C5.99184 13.404 6.22518 13.306 6.49584 13.306C6.78518 13.306 7.02318 13.404 7.20984 13.6C7.39651 13.7867 7.48984 14.0153 7.48984 14.286C7.48984 14.5473 7.39651 14.776 7.20984 14.972C7.02318 15.168 6.78518 15.266 6.49584 15.266C6.22518 15.266 5.99184 15.168 5.79584 14.972C5.60918 14.776 5.51584 14.5473 5.51584 14.286ZM9.83616 14.286C9.83616 14.0153 9.92949 13.7867 10.1162 13.6C10.3122 13.404 10.5455 13.306 10.8162 13.306C11.1055 13.306 11.3435 13.404 11.5302 13.6C11.7168 13.7867 11.8102 14.0153 11.8102 14.286C11.8102 14.5473 11.7168 14.776 11.5302 14.972C11.3435 15.168 11.1055 15.266 10.8162 15.266C10.5455 15.266 10.3122 15.168 10.1162 14.972C9.92949 14.776 9.83616 14.5473 9.83616 14.286Z" fill="#051036"/>
</svg>
