<svg width="24" height="24" viewBox="0 0 24 24" fill="none"
    xmlns="http://www.w3.org/2000/svg">
    <path fill-rule="evenodd" clip-rule="evenodd" d="M13.4238 20.9408C13.267 20.976 13.1043 20.994 12.9378 20.994C10.6285 21 6.0655 21 3.7555 21C2.55475 21 1.5655 20.058 1.507 18.8587C1.507 18.852 1.507 18.8445 1.50625 18.8377C1.48075 17.583 1.51975 15.636 1.88125 13.4415C2.0725 12.282 3.06475 10.824 4.07575 10.2083C4.117 10.1835 4.1575 10.1587 4.198 10.1347C4.45525 9.981 4.78 9.99525 5.023 10.1722C5.956 10.8503 7.10425 11.25 8.34475 11.25C9.58525 11.25 10.7335 10.8503 11.6665 10.1722C11.908 9.99675 12.2298 9.98175 12.487 10.1325C12.529 10.1573 12.571 10.1827 12.6138 10.2083C13.1268 10.521 13.6413 11.0445 14.0425 11.64C14.875 11.154 15.8425 10.875 16.8753 10.875C19.9795 10.875 22.5003 13.3958 22.5003 16.5C22.5003 18.4522 21.5035 20.1742 19.9908 21.183C19.9 21.2437 19.8063 21.3022 19.7118 21.3577C18.8785 21.8452 17.9095 22.125 16.8753 22.125C15.5748 22.125 14.377 21.6833 13.4238 20.9408ZM12.856 12.5655C12.6423 12.2302 12.3805 11.916 12.103 11.6842C11.0103 12.36 9.7225 12.75 8.34475 12.75C6.96625 12.75 5.6785 12.3593 4.58575 11.6835C3.99925 12.1658 3.47425 13.0013 3.36175 13.6852C3.01975 15.7612 2.98225 17.604 3.00625 18.8032C3.03475 19.1947 3.36025 19.5 3.75475 19.5C5.815 19.5 9.6685 19.5 12.115 19.4963C11.8533 19.0815 11.6448 18.6308 11.4978 18.153C11.3365 17.6303 11.2503 17.0752 11.2503 16.5C11.2503 16.1595 11.2803 15.8265 11.3388 15.5033C11.542 14.3707 12.0835 13.3552 12.856 12.5655ZM14.092 19.5427C14.8255 20.2148 15.8028 20.625 16.8753 20.625C17.6328 20.625 18.343 20.4202 18.9535 20.0632C19.0233 20.022 19.0915 19.9792 19.159 19.935C20.2683 19.1947 21.0003 17.9325 21.0003 16.5C21.0003 14.223 19.1523 12.375 16.8753 12.375C15.8875 12.375 14.9808 12.723 14.2705 13.3027C13.5228 13.9125 12.9925 14.7795 12.8148 15.768C12.7728 16.005 12.7503 16.2502 12.7503 16.5C12.7503 16.9215 12.8133 17.3287 12.931 17.712C13.15 18.423 13.5565 19.053 14.092 19.5427ZM16.1268 19.2547C15.7488 19.1632 15.3903 19.014 15.1015 18.819C14.7588 18.5872 14.668 18.1208 14.899 17.778C15.1308 17.4345 15.5973 17.3438 15.9408 17.5755C16.2535 17.7862 16.7223 17.9048 17.1138 17.8515C17.302 17.826 17.4798 17.7465 17.4798 17.52C17.4798 17.4893 17.449 17.4818 17.4258 17.4683C17.356 17.4285 17.2758 17.3977 17.191 17.3693C16.9 17.2718 16.567 17.2073 16.2648 17.1188C15.3925 16.8645 14.7708 16.3973 14.7708 15.489C14.7708 15.0308 14.9058 14.6707 15.1143 14.391C15.3565 14.0647 15.7105 13.8405 16.1283 13.7257C16.1613 13.3425 16.4838 13.0417 16.8753 13.0417C17.272 13.0417 17.5975 13.3507 17.6238 13.7415C18.0048 13.836 18.3678 13.9935 18.6588 14.1968C18.9985 14.4338 19.081 14.9018 18.844 15.2415C18.607 15.5805 18.139 15.6638 17.8 15.4268C17.491 15.2108 17.0268 15.0952 16.6405 15.1493C16.45 15.1755 16.2708 15.2603 16.2708 15.489C16.2708 15.5198 16.3015 15.5273 16.3248 15.5408C16.3945 15.5813 16.4748 15.6113 16.5595 15.6398C16.8505 15.7373 17.1835 15.8018 17.4858 15.8903C18.358 16.1445 18.9798 16.6118 18.9798 17.52C18.9798 18.4478 18.4788 18.981 17.7858 19.2262C17.7333 19.245 17.6785 19.2615 17.6223 19.2757C17.5878 19.6583 17.266 19.9583 16.8753 19.9583C16.477 19.9583 16.1508 19.647 16.1268 19.2547ZM8.34475 1.5C10.6015 1.5 12.4345 3.33225 12.4345 5.589C12.4345 7.8465 10.6015 9.67875 8.34475 9.67875C6.088 9.67875 4.25575 7.8465 4.25575 5.589C4.25575 3.33225 6.088 1.5 8.34475 1.5ZM8.34475 3C6.916 3 5.75575 4.16025 5.75575 5.589C5.75575 7.0185 6.916 8.17875 8.34475 8.17875C9.77425 8.17875 10.9345 7.0185 10.9345 5.589C10.9345 4.16025 9.77425 3 8.34475 3Z" fill="black"/>
</svg>
