<svg width="9" height="10" viewBox="0 0 9 10" fill="none" xmlns="http://www.w3.org/2000/svg">
<path d="M4.39648 2.92969C5.62695 2.92969 6.64258 3.94531 6.64258 5.17578C6.64258 6.42578 5.62695 7.42188 4.39648 7.42188C3.14648 7.42188 2.15039 6.42578 2.15039 5.17578C2.15039 3.94531 3.14648 2.92969 4.39648 2.92969ZM4.39648 6.64062C5.19727 6.64062 5.8418 5.99609 5.8418 5.17578C5.8418 4.375 5.19727 3.73047 4.39648 3.73047C3.57617 3.73047 2.93164 4.375 2.93164 5.17578C2.93164 5.99609 3.5957 6.64062 4.39648 6.64062ZM7.24805 2.85156C7.24805 3.14453 7.01367 3.37891 6.7207 3.37891C6.42773 3.37891 6.19336 3.14453 6.19336 2.85156C6.19336 2.55859 6.42773 2.32422 6.7207 2.32422C7.01367 2.32422 7.24805 2.55859 7.24805 2.85156ZM8.73242 3.37891C8.77148 4.10156 8.77148 6.26953 8.73242 6.99219C8.69336 7.69531 8.53711 8.30078 8.0293 8.82812C7.52148 9.33594 6.89648 9.49219 6.19336 9.53125C5.4707 9.57031 3.30273 9.57031 2.58008 9.53125C1.87695 9.49219 1.27148 9.33594 0.744141 8.82812C0.236328 8.30078 0.0800781 7.69531 0.0410156 6.99219C0.00195312 6.26953 0.00195312 4.10156 0.0410156 3.37891C0.0800781 2.67578 0.236328 2.05078 0.744141 1.54297C1.27148 1.03516 1.87695 0.878906 2.58008 0.839844C3.30273 0.800781 5.4707 0.800781 6.19336 0.839844C6.89648 0.878906 7.52148 1.03516 8.0293 1.54297C8.53711 2.05078 8.69336 2.67578 8.73242 3.37891ZM7.79492 7.75391C8.0293 7.1875 7.9707 5.82031 7.9707 5.17578C7.9707 4.55078 8.0293 3.18359 7.79492 2.59766C7.63867 2.22656 7.3457 1.91406 6.97461 1.77734C6.38867 1.54297 5.02148 1.60156 4.39648 1.60156C3.75195 1.60156 2.38477 1.54297 1.81836 1.77734C1.42773 1.93359 1.13477 2.22656 0.978516 2.59766C0.744141 3.18359 0.802734 4.55078 0.802734 5.17578C0.802734 5.82031 0.744141 7.1875 0.978516 7.75391C1.13477 8.14453 1.42773 8.4375 1.81836 8.59375C2.38477 8.82812 3.75195 8.76953 4.39648 8.76953C5.02148 8.76953 6.38867 8.82812 6.97461 8.59375C7.3457 8.4375 7.6582 8.14453 7.79492 7.75391Z" fill="#041E42"/>
</svg>
