<svg width="20" height="20" viewBox="0 0 20 20" fill="none" xmlns="http://www.w3.org/2000/svg">
<path d="M10 9.16634C10.8241 9.16634 11.6297 8.922 12.3149 8.46409C13.0001 8.00629 13.5342 7.35555 13.8495 6.59419C14.1648 5.83283 14.2474 4.99505 14.0866 4.1868C13.9258 3.37855 13.529 2.63611 12.9462 2.0534C12.3636 1.47068 11.6212 1.07384 10.8129 0.913073C10.0046 0.752298 9.16683 0.834815 8.4055 1.15017C7.64412 1.46554 6.99338 1.9996 6.53554 2.6848C6.0777 3.37001 5.83333 4.17559 5.83333 4.99967C5.83466 6.10434 6.27406 7.16337 7.05518 7.94449C7.8363 8.72559 8.89533 9.165 10 9.16634ZM10 2.49967C10.4944 2.49967 10.9778 2.6463 11.3889 2.921C11.8001 3.19571 12.1205 3.58615 12.3097 4.04296C12.4989 4.49978 12.5484 5.00245 12.452 5.4874C12.3555 5.97235 12.1174 6.41781 11.7677 6.76744C11.4182 7.11707 10.9727 7.35517 10.4877 7.45164C10.0027 7.5481 9.50008 7.49859 9.04325 7.30937C8.5865 7.12015 8.19603 6.79972 7.92132 6.3886C7.64662 5.97748 7.5 5.49413 7.5 4.99967C7.5 4.33663 7.76339 3.70075 8.23223 3.23191C8.70108 2.76306 9.337 2.49967 10 2.49967ZM2.5 18.333V14.9997C2.50132 13.895 2.94073 12.836 3.72185 12.0548C4.50297 11.2738 5.56201 10.8343 6.66666 10.833H13.3333C14.438 10.8343 15.497 11.2738 16.2782 12.0548C17.0592 12.836 17.4987 13.895 17.5 14.9997V18.333C17.5 18.554 17.4122 18.766 17.2559 18.9223C17.0997 19.0785 16.8877 19.1663 16.6667 19.1663C16.4457 19.1663 16.2337 19.0785 16.0774 18.9223C15.9212 18.766 15.8333 18.554 15.8333 18.333V14.9997C15.8333 14.3367 15.5699 13.7008 15.1011 13.2319C14.6322 12.7631 13.9963 12.4997 13.3333 12.4997H6.66666C6.00362 12.4997 5.36774 12.7631 4.8989 13.2319C4.43006 13.7008 4.16667 14.3367 4.16667 14.9997V18.333C4.16667 18.554 4.07887 18.766 3.92259 18.9223C3.76631 19.0785 3.55435 19.1663 3.33333 19.1663C3.11232 19.1663 2.90036 19.0785 2.74407 18.9223C2.5878 18.766 2.5 18.554 2.5 18.333Z" fill="#041E42"/>
</svg>
