<svg width="893" height="197" viewBox="0 0 893 197" fill="none" xmlns="http://www.w3.org/2000/svg">
<path d="M23.9593 104.705C13.7016 99.6393 1 85.8079 1 85.8079V197H892V1C848.278 12.5294 835.392 53.4229 806.923 53.4229C778.454 53.4229 771.881 23.6 730.979 23.6C690.076 23.6 661.426 92.6843 625.51 92.6843C589.594 92.6843 580.886 43.1614 516.867 43.1614C452.848 43.1614 433.153 87.442 407.37 87.442C381.587 87.442 381.608 62.2344 351.682 62.2344C321.756 62.2344 311.193 107.63 284.037 107.63C256.88 107.63 223.75 29.1313 179.276 29.1313C134.802 29.1313 99.9489 112.367 59.0726 112.367C43.135 112.236 33.2159 109.276 23.9593 104.705Z" fill="url(#paint0_linear_1_2643)"/>
<path d="M1 85.5282C1 85.5282 13.7016 99.314 23.9593 104.363C33.2159 108.919 43.135 111.869 59.0726 112C99.9489 112 134.802 29.0385 179.276 29.0385C223.75 29.0385 256.88 107.279 284.037 107.279C311.193 107.279 321.756 62.0325 351.682 62.0325C381.608 62.0325 381.587 87.1569 407.37 87.1569C433.153 87.1569 452.848 43.0223 516.867 43.0223C580.886 43.0223 589.594 92.3819 625.51 92.3819C661.426 92.3819 690.076 23.5254 730.979 23.5254C771.881 23.5254 778.454 53.25 806.923 53.25C835.392 53.25 848.278 12.4914 892 1" stroke="#007E42" stroke-width="2" stroke-linecap="round"/>
<defs>
<linearGradient id="paint0_linear_1_2643" x1="446.5" y1="1" x2="446.5" y2="197" gradientUnits="userSpaceOnUse">
<stop stop-color="#60C260"/>
<stop offset="1" stop-color="#60C260" stop-opacity="0"/>
</linearGradient>
</defs>
</svg>
