<svg width="35" height="35" viewBox="0 0 35 35" fill="none"
    xmlns="http://www.w3.org/2000/svg">
    <g clip-path="url(#clip0_67_8180)">
        <path d="M32.3673 9.49639L32.3662 9.46915C32.351 9.13296 32.3408 8.77728 32.3347 8.38155C32.3061 6.45173 30.772 4.85544 28.842 4.74756C24.8178 4.52299 21.7048 3.21081 19.045 0.618237L19.0223 0.596608C18.1547 -0.198869 16.846 -0.198869 15.9782 0.596608L15.9555 0.618237C13.2956 3.21081 10.1826 4.52299 6.15846 4.74783C4.22865 4.85544 2.69431 6.45173 2.66574 8.38181C2.65986 8.77488 2.64945 9.13056 2.63423 9.46915L2.63262 9.53244C2.55439 13.6359 2.45719 18.7428 4.16563 23.3781C5.10504 25.9272 6.52776 28.143 8.39402 29.9644C10.5196 32.0386 13.3036 33.6854 16.6687 34.8587C16.7782 34.8969 16.8919 34.9279 17.0078 34.9511C17.1712 34.9837 17.3357 35 17.5002 35C17.6647 35 17.8295 34.9837 17.9926 34.9511C18.1085 34.9279 18.2231 34.8966 18.3331 34.8582C21.6942 33.6827 24.4753 32.0352 26.5989 29.9612C28.4644 28.1392 29.8871 25.9229 30.8273 23.3733C32.5422 18.7241 32.4452 13.6076 32.3673 9.49639ZM28.9004 22.6627C27.0985 27.5483 23.4202 30.9035 17.6554 32.9196C17.6348 32.9265 17.6129 32.9326 17.5902 32.9372C17.5307 32.9489 17.47 32.9489 17.4097 32.9369C17.3873 32.9324 17.3654 32.9265 17.3451 32.9196C11.5741 30.9072 7.89334 27.5539 6.09277 22.6681C4.51811 18.3954 4.6073 13.7074 4.68607 9.57169L4.6866 9.54873C4.70263 9.19331 4.71331 8.82107 4.71918 8.41199C4.732 7.55509 5.41452 6.84613 6.27302 6.79834C8.55023 6.67123 10.5508 6.23117 12.389 5.45305C14.2248 4.676 15.8553 3.58065 17.3731 2.10452C17.4503 2.03936 17.5504 2.03909 17.6273 2.10452C19.1454 3.58065 20.7758 4.676 22.6114 5.45305C24.4496 6.23117 26.4502 6.67123 28.7277 6.79834C29.5862 6.84613 30.2687 7.55509 30.2812 8.41225C30.2874 8.82348 30.2981 9.19571 30.3141 9.54873C30.3926 13.6893 30.4796 18.3809 28.9004 22.6627Z" fill="#60C260"/>
        <path d="M17.4998 8.77832C12.6901 8.77832 8.77734 12.6914 8.77734 17.5008C8.77734 22.3105 12.6901 26.2236 17.4998 26.2236C22.3093 26.2236 26.2223 22.3105 26.2223 17.5008C26.2223 12.6914 22.3093 8.77832 17.4998 8.77832ZM17.4998 24.1696C13.8226 24.1696 10.8311 21.1781 10.8311 17.5008C10.8311 13.8236 13.8226 10.832 17.4998 10.832C21.1768 10.832 24.1684 13.8236 24.1684 17.5008C24.1684 21.1781 21.1768 24.1696 17.4998 24.1696Z" fill="#60C260"/>
        <path d="M20.0075 14.7922L15.9561 18.8436L14.8565 17.7439C14.4554 17.3429 13.8052 17.3429 13.4041 17.7439C13.0033 18.145 13.0033 18.7952 13.4041 19.196L15.2301 21.022C15.4306 21.2225 15.6934 21.3227 15.9561 21.3227C16.2189 21.3227 16.4816 21.2225 16.6822 21.022L21.4598 16.2443C21.8607 15.8432 21.8607 15.193 21.4598 14.7922C21.0588 14.3909 20.4086 14.3909 20.0075 14.7922Z" fill="#60C260"/>
    </g>
    <defs>
        <clipPath id="clip0_67_8180">
            <rect width="35" height="35" fill="white"/>
        </clipPath>
    </defs>
</svg>