<svg width="14" height="14" viewBox="0 0 14 14" fill="none" xmlns="http://www.w3.org/2000/svg">
  <g clip-path="url(#clip0_0_303)">
    <path d="M3.37894 7.38418L9.85436 13.8417C10.0665 14.0531 10.41 14.0528 10.6218 13.8406C10.8335 13.6284 10.8329 13.2847 10.6207 13.0731L4.53074 6.99998L10.6209 0.926851C10.8331 0.715211 10.8336 0.371748 10.622 0.159561C10.5159 0.0531941 10.3768 1.06459e-05 10.2377 1.06337e-05C10.0989 1.06216e-05 9.96037 0.0528386 9.85438 0.158467L3.37894 6.6158C3.27676 6.71746 3.21942 6.85582 3.21942 6.99998C3.21942 7.14413 3.27692 7.28233 3.37894 7.38418Z" fill="#112137"/>
  </g>
  <defs>
    <clipPath id="clip0_0_303">
      <rect width="13.75" height="13.75" fill="white" transform="translate(14 14) scale(1.01818) rotate(-180)"/>
    </clipPath>
  </defs>
</svg>
