<svg width="14" height="16" viewBox="0 0 14 16" fill="none" xmlns="http://www.w3.org/2000/svg">
  <path d="M11.1644 8.42667C11.1644 8.49778 11.0578 10.5956 13.3689 11.6978C12.9422 13.0133 11.4489 15.9289 9.70667 15.9289C8.71111 15.9289 8.14222 15.2889 7.00444 15.2889C5.83111 15.2889 5.19111 15.9289 4.30222 15.9289C2.59556 16 0.96 12.8 0.497778 11.4844C0.142222 10.4889 0 9.52889 0 8.60444C0 5.44 2.09778 3.91111 4.08889 3.87556C5.04889 3.87556 6.25778 4.55111 6.79111 4.55111C7.28889 4.55111 8.67556 3.73333 9.95556 3.84C11.2711 3.94667 12.2667 4.44444 12.9422 5.40444C11.7689 6.15111 11.1644 7.11111 11.1644 8.42667ZM9.17333 2.59556C8.46222 3.41333 7.60889 3.87556 6.68444 3.80444C6.61333 2.84444 6.96889 1.95556 7.60889 1.24444C8.17778 0.604444 9.17333 0.0711111 10.0267 0C10.0267 0.391111 10.1333 1.45778 9.17333 2.59556Z" fill="#041E42"/>
</svg>
