<svg width="20" height="20" viewBox="0 0 20 20" fill="none" xmlns="http://www.w3.org/2000/svg">
<path d="M1.96918 19.961C1.53854 19.961 1.18945 19.6119 1.18945 19.1813C1.18945 15.2688 4.37249 12.0858 8.28497 12.0858H9.45456C10.3135 12.0858 11.1535 12.2378 11.9512 12.5377C12.3542 12.6892 12.5582 13.1388 12.4067 13.5419C12.2551 13.945 11.8056 14.149 11.4024 13.9974C10.7808 13.7637 10.1254 13.6452 9.45456 13.6452H8.28497C5.23238 13.6452 2.74891 16.1287 2.74891 19.1813C2.74891 19.6119 2.39982 19.961 1.96918 19.961ZM14.055 5.26316C14.055 2.36105 11.6939 0 8.79179 0C5.88969 0 3.52863 2.36105 3.52863 5.26316C3.52863 8.16526 5.88969 10.5263 8.79179 10.5263C11.6939 10.5263 14.055 8.16526 14.055 5.26316ZM12.4955 5.26316C12.4955 7.30538 10.834 8.96686 8.79179 8.96686C6.74957 8.96686 5.08809 7.30538 5.08809 5.26316C5.08809 3.22094 6.74957 1.55945 8.79179 1.55945C10.834 1.55945 12.4955 3.22094 12.4955 5.26316ZM18.8113 17.6218V15.5625C18.8113 14.2473 17.7414 13.1774 16.4263 13.1774H14.3668C13.9362 13.1774 13.5871 13.5265 13.5871 13.9571C13.5871 14.3878 13.9362 14.7368 14.3668 14.7368H16.4263C16.8815 14.7368 17.2518 15.1072 17.2518 15.5625V17.6218C17.2518 18.0525 17.6009 18.4016 18.0316 18.4016C18.4622 18.4016 18.8113 18.0525 18.8113 17.6218ZM16.1 17.1463C16.3974 16.8349 16.386 16.3413 16.0746 16.0439C15.7631 15.7466 15.2696 15.7579 14.9721 16.0693C13.5331 17.5763 11.5127 18.4405 9.42902 18.4405H9.0647C8.63405 18.4405 8.28497 18.7896 8.28497 19.2203C8.28497 19.6509 8.63405 20 9.0647 20H9.42902C11.9367 20 14.3681 18.9598 16.1 17.1463Z" fill="#041E42"/>
</svg>
