<svg width="35" height="35" viewBox="0 0 35 35" fill="none"
    xmlns="http://www.w3.org/2000/svg">
    <g clip-path="url(#clip0_67_8174)">
        <path fill-rule="evenodd" clip-rule="evenodd" d="M13.8662 22.7012H24.5399C25.7485 19.143 30.7913 19.1772 31.9881 22.7012H32.88V17.5724C32.88 16.9334 32.3564 16.4097 31.7176 16.4097C29.0962 16.4097 26.4748 16.4097 23.8534 16.4097C23.2867 16.4097 22.8274 15.9504 22.8274 15.3841V9.22932H5.25266V10.4601H7.13869C8.48905 10.4601 8.48905 12.5116 7.13869 12.5116H5.25266V14.4949H10.1764C11.527 14.4949 11.527 16.5464 10.1764 16.5464H5.25266V22.7009H6.41824C7.62655 19.1428 12.6697 19.1775 13.8662 22.7012ZM3.20108 12.5116H1.97034C0.619707 12.5116 0.619707 10.4601 1.97034 10.4601H3.20108V8.20339C3.20108 7.63702 3.66037 7.17773 4.227 7.17773C5.79686 7.17773 23.0499 7.18441 23.0499 7.17773C25.8579 7.17773 28.3039 8.56789 29.7432 10.9832L31.7545 14.3584C33.5097 14.3782 34.9316 15.814 34.9316 17.5721V23.7268C34.9316 24.2932 34.4723 24.7525 33.9059 24.7525H32.1176C31.7499 26.563 30.1502 27.8981 28.2641 27.8981C26.3781 27.8981 24.7784 26.563 24.4107 24.7525H13.9957C13.628 26.563 12.0283 27.8981 10.1422 27.8981C8.2562 27.8981 6.65643 26.563 6.28873 24.7525H4.227C3.66037 24.7525 3.20108 24.2932 3.20108 23.7268V20.6493H0.944415C-0.405951 20.6493 -0.405951 18.598 0.944415 18.598H3.20108V16.5464H0.944415C-0.405951 16.5464 -0.405951 14.4949 0.944415 14.4949H3.20108V12.5116ZM29.594 22.6363C30.3283 23.3706 30.3283 24.5616 29.594 25.2959C28.4126 26.4772 26.3835 25.6369 26.3835 23.9661C26.3835 22.2953 28.4126 21.455 29.594 22.6363ZM29.3737 14.3581H24.879V9.50729C26.1877 9.9268 27.258 10.8075 27.988 12.0329L29.3737 14.3581ZM11.472 22.6363C12.2064 23.3706 12.2064 24.5616 11.472 25.2959C10.2907 26.4772 8.26154 25.6369 8.26154 23.9661C8.26181 22.2953 10.2907 21.455 11.472 22.6363Z" fill="#60C260"/>
    </g>
    <defs>
        <clipPath id="clip0_67_8174">
            <rect width="35" height="35" fill="white"/>
        </clipPath>
    </defs>
</svg>