<svg width="9" height="5" viewBox="0 0 9 5" fill="none" xmlns="http://www.w3.org/2000/svg">
<path d="M4.58843 4.86424L8.37576 1.07685C8.46342 0.989247 8.51172 0.872312 8.51172 0.747627C8.51172 0.622941 8.46342 0.506006 8.37576 0.418408L8.09691 0.139492C7.91521 -0.0419999 7.61989 -0.0419999 7.43847 0.139492L4.2581 3.31986L1.0742 0.135963C0.986534 0.0483653 0.869668 -3.34045e-07 0.745051 -3.39492e-07C0.620297 -3.44945e-07 0.50343 0.0483653 0.415694 0.135963L0.136917 0.414879C0.0492496 0.502546 0.000953647 0.619412 0.000953642 0.744097C0.000953636 0.868783 0.0492496 0.985718 0.136917 1.07332L3.92771 4.86424C4.01565 4.95205 4.13307 5.00028 4.25789 5C4.3832 5.00028 4.50055 4.95205 4.58843 4.86424Z" fill="#041E42"/>
</svg>
