<svg width="40" height="40" viewBox="0 0 40 40" fill="none" xmlns="http://www.w3.org/2000/svg">
  <rect x="1" y="1" width="38" height="38" rx="19" fill="white" stroke="#F5C34B" stroke-width="2"/>
  <g clip-path="url(#clip0_1_1264)">
    <path d="M29.2939 19.1226C30.103 18.3341 29.6565 16.9602 28.5386 16.7978L24.1922 16.1662C23.7481 16.1017 23.3644 15.8228 23.1659 15.4205L21.222 11.4819C20.722 10.4689 19.2775 10.4689 18.7776 11.4819L16.8338 15.4205C16.6352 15.8228 16.2515 16.1017 15.8075 16.1662L11.461 16.7978C10.343 16.9602 9.89666 18.3341 10.7055 19.1226L13.8508 22.1884C14.172 22.5015 14.3185 22.9526 14.2428 23.3948L13.5003 27.7237C13.3093 28.8371 14.478 29.6863 15.4779 29.1605L19.3655 27.1167C19.7625 26.908 20.2369 26.908 20.634 27.1167L24.5216 29.1605C25.5215 29.6861 26.6902 28.8371 26.4993 27.7237L25.7568 23.3948C25.681 22.9527 25.8276 22.5015 26.1488 22.1884L29.2939 19.1226Z" fill="#F4E64C"/>
    <path d="M15.0628 28.114L15.8053 23.7851C15.8812 23.3429 15.7345 22.8918 15.4133 22.5787L12.2682 19.5129C11.4592 18.7243 11.9056 17.3504 13.0235 17.1881L17.37 16.5565C17.814 16.492 18.1977 16.2132 18.3963 15.8108L20.3401 11.8722C20.5 11.5483 20.7566 11.3286 21.0479 11.2118C20.4458 10.4789 19.2282 10.5687 18.7776 11.4816L16.8338 15.4202C16.6352 15.8226 16.2515 16.1013 15.8075 16.1659L11.461 16.7975C10.343 16.9598 9.89666 18.3337 10.7055 19.1223L13.8508 22.1881C14.172 22.5012 14.3185 22.9522 14.2428 23.3944L13.5003 27.7234C13.3169 28.7924 14.3869 29.617 15.3576 29.2158C15.1168 28.9291 14.9896 28.5412 15.0628 28.114Z" fill="#FAB659"/>
    <path d="M16.2217 19.1079V19.7387C16.2217 19.9006 16.3528 20.0317 16.5146 20.0317C16.6764 20.0317 16.8076 19.9006 16.8076 19.7387V19.1079C16.8076 18.9462 16.6764 18.8149 16.5146 18.8149C16.3528 18.8149 16.2217 18.9462 16.2217 19.1079Z" fill="black"/>
    <path d="M23.7778 19.7387V19.1079C23.7778 18.9462 23.6466 18.8149 23.4849 18.8149C23.3231 18.8149 23.1919 18.9462 23.1919 19.1079V19.7387C23.1919 19.9006 23.3231 20.0317 23.4849 20.0317C23.6466 20.0317 23.7778 19.9006 23.7778 19.7387Z" fill="black"/>
    <path d="M19.9998 20.3685C20.4196 20.3685 20.8136 20.1933 21.0806 19.8876C21.1871 19.7659 21.1746 19.5808 21.0529 19.4743C20.9311 19.3678 20.746 19.3801 20.6395 19.5021C20.4837 19.6803 20.2505 19.7825 19.9998 19.7825C19.7491 19.7825 19.516 19.6803 19.3602 19.5021C19.2538 19.3803 19.0688 19.3678 18.9468 19.4743C18.8251 19.5808 18.8126 19.7659 18.9191 19.8876C19.1861 20.1933 19.5801 20.3685 19.9998 20.3685Z" fill="black"/>
    <path d="M13.9542 23.3456L13.2117 27.6747C13.1044 28.3005 13.3568 28.921 13.8706 29.2943C14.3842 29.6675 15.0524 29.7157 15.6145 29.4203L19.5021 27.3766C19.8139 27.2125 20.1862 27.2125 20.4979 27.3766C20.4979 27.3766 24.3854 29.4203 24.3856 29.4203C24.9303 29.7067 25.6183 29.6657 26.1295 29.2943C26.6431 28.921 26.8956 28.3005 26.7882 27.6747L26.4496 25.6999C26.4221 25.5405 26.2709 25.4333 26.1113 25.4607C25.9517 25.4881 25.8448 25.6395 25.8721 25.7989L26.2107 27.7737C26.2812 28.1842 26.122 28.5754 25.7851 28.8202C25.4482 29.0651 25.0269 29.0955 24.6582 28.9017L20.7706 26.8579C20.2881 26.6042 19.7119 26.6042 19.2295 26.8579L15.3418 28.9017C14.9732 29.0955 14.5519 29.0651 14.215 28.8202C13.8781 28.5754 13.7189 28.1842 13.7892 27.7737L14.5317 23.4448C14.6239 22.9076 14.4458 22.3596 14.0555 21.9791L10.9104 18.9133C10.6122 18.6226 10.5109 18.2126 10.6395 17.8165C10.7683 17.4203 11.0912 17.1481 11.5033 17.0882L15.8499 16.4566C16.3893 16.3782 16.8555 16.0396 17.0967 15.5507L17.9981 13.7245C18.0696 13.5794 18.0101 13.4038 17.865 13.3321C17.7198 13.2605 17.5443 13.32 17.4726 13.4651L16.5712 15.2914C16.4154 15.6071 16.1142 15.8261 15.7656 15.8768L11.4191 16.5083C10.7907 16.5996 10.2785 17.0314 10.0823 17.6353C9.88605 18.2391 10.0467 18.8896 10.5013 19.3327L13.6466 22.3985C13.8988 22.6445 14.0139 22.9985 13.9542 23.3456Z" fill="black"/>
    <path d="M28.5808 16.5083L24.2342 15.8768C23.8857 15.8261 23.5845 15.6073 23.4285 15.2914L21.4849 11.3527C21.2038 10.7834 20.6348 10.4297 19.9999 10.4297C19.365 10.4297 18.796 10.7834 18.5149 11.3527L18.02 12.3555C17.9485 12.5005 18.008 12.6762 18.1531 12.7478C18.2982 12.8194 18.4738 12.7599 18.5456 12.6147L19.0404 11.6121C19.2247 11.2386 19.5833 11.0156 19.9999 11.0156C20.4164 11.0156 20.775 11.2386 20.9593 11.6121L22.9032 15.5507C23.1446 16.0396 23.6106 16.3782 24.15 16.4566L28.4966 17.0882C28.9087 17.1481 29.2316 17.4203 29.3604 17.8165C29.489 18.2126 29.3878 18.6226 29.0895 18.9133L25.9444 21.9791C25.5541 22.3596 25.376 22.9076 25.4682 23.4448C25.4682 23.4448 25.6275 24.3741 25.6278 24.3759C25.6548 24.5326 25.8098 24.642 25.9661 24.6152C26.1257 24.5879 26.2326 24.4363 26.2053 24.2769L26.0457 23.3458C25.9861 22.9987 26.1011 22.6445 26.3533 22.3987L29.4986 19.3329C29.9532 18.8898 30.1139 18.2393 29.9176 17.6353C29.7214 17.0314 29.2092 16.5996 28.5808 16.5083Z" fill="black"/>
  </g>
  <defs>
    <clipPath id="clip0_1_1264">
      <rect width="20" height="20" fill="white" transform="translate(10 10)"/>
    </clipPath>
  </defs>
</svg>
