<svg width="16" height="16" viewBox="0 0 16 16" fill="none" xmlns="http://www.w3.org/2000/svg">
<path fill-rule="evenodd" clip-rule="evenodd" d="M6.45585 2.3672C6.04995 1.83281 5.3105 1.61139 4.67248 1.93815C4.35875 2.09882 3.97832 2.31302 3.63599 2.56119C2.23741 3.57507 2.1344 5.48795 3.06669 6.8184C3.69024 7.70825 4.59646 8.8399 5.8774 10.1208C7.1582 11.4016 8.28975 12.3078 9.17955 12.9313C10.511 13.8644 12.4223 13.762 13.437 12.3622C13.6908 12.012 13.9049 11.633 14.0645 11.3212C14.3904 10.6841 14.1664 9.94905 13.6355 9.5458L12.4885 8.67465C11.762 8.1229 10.7397 8.19245 10.0947 8.83745C10.0313 8.90085 9.9286 8.90085 9.8652 8.83745L7.16075 6.133C7.09735 6.06965 7.09735 5.96685 7.16075 5.9035C7.80575 5.25845 7.8753 4.23613 7.32355 3.50969L6.45585 2.3672ZM5.1283 2.82821C5.29485 2.74291 5.51865 2.78657 5.6595 2.97203L6.5272 4.11452C6.77655 4.44284 6.74515 4.90485 6.45365 5.19635C5.9997 5.6503 5.9997 6.3862 6.45365 6.8401L9.1581 9.5446C9.612 9.9985 10.3479 9.9985 10.8018 9.5446C11.0933 9.25305 11.5553 9.22165 11.8836 9.471L13.0307 10.3421C13.2153 10.4824 13.2576 10.7028 13.1743 10.8657C13.028 11.1515 12.8403 11.4815 12.6273 11.7753C11.9919 12.6519 10.7245 12.7929 9.75345 12.1124C8.91045 11.5217 7.8236 10.6528 6.5845 9.4137C5.34525 8.1745 4.47636 7.08755 3.88564 6.24454C3.20602 5.27464 3.34737 4.00554 4.22293 3.37082C4.50762 3.16443 4.83838 2.9767 5.1283 2.82821Z" fill="#041E42"/>
<path d="M10.0823 2.00688C9.80988 1.96148 9.55228 2.14549 9.50688 2.41788C9.46148 2.69026 9.64548 2.94788 9.91788 2.99327L10.0996 3.02356C11.5748 3.26942 12.7307 4.42539 12.9766 5.90053L13.0069 6.08228C13.0523 6.35468 13.3099 6.53868 13.5823 6.49328C13.8547 6.44788 14.0387 6.19028 13.9933 5.91788L13.963 5.73613C13.6469 3.83952 12.1606 2.35327 10.264 2.03717L10.0823 2.00688Z" fill="#041E42"/>
<path d="M9.57075 4.00509C9.2974 3.96604 9.04415 4.15598 9.0051 4.42935C8.966 4.70272 9.15595 4.95598 9.42935 4.99504L9.6944 5.03291C10.3544 5.12716 10.873 5.64571 10.9672 6.30571L11.0051 6.57076C11.0442 6.84416 11.2974 7.03411 11.5708 6.99501C11.8442 6.95596 12.0341 6.70271 11.9951 6.42936L11.9572 6.16426C11.8 5.06431 10.9358 4.20009 9.83585 4.04296L9.57075 4.00509Z" fill="#041E42"/>
</svg>
