<svg width="120" height="120" viewBox="0 0 120 120" fill="none" xmlns="http://www.w3.org/2000/svg">
<g filter="url(#filter0_d_1_871)">
<circle cx="60" cy="50" r="25" fill="white"/>
</g>
<g clip-path="url(#clip0_1_871)">
<path d="M64.1814 50.2477L57.8216 43.9055C57.6132 43.6978 57.2759 43.6982 57.0679 43.9066C56.86 44.1149 56.8605 44.4525 57.0689 44.6603L63.0502 50.625L57.0687 56.5897C56.8604 56.7976 56.8598 57.1349 57.0676 57.3433C57.1719 57.4478 57.3085 57.5 57.4452 57.5C57.5814 57.5 57.7175 57.4481 57.8216 57.3444L64.1814 51.0023C64.2818 50.9025 64.3381 50.7666 64.3381 50.625C64.3381 50.4834 64.2816 50.3477 64.1814 50.2477Z" fill="#112137"/>
</g>
<defs>
<filter id="filter0_d_1_871" x="0" y="0" width="120" height="120" filterUnits="userSpaceOnUse" color-interpolation-filters="sRGB">
<feFlood flood-opacity="0" result="BackgroundImageFix"/>
<feColorMatrix in="SourceAlpha" type="matrix" values="0 0 0 0 0 0 0 0 0 0 0 0 0 0 0 0 0 0 127 0" result="hardAlpha"/>
<feOffset dy="10"/>
<feGaussianBlur stdDeviation="17.5"/>
<feComposite in2="hardAlpha" operator="out"/>
<feColorMatrix type="matrix" values="0 0 0 0 0.0666667 0 0 0 0 0.129412 0 0 0 0 0.215686 0 0 0 0.1 0"/>
<feBlend mode="normal" in2="BackgroundImageFix" result="effect1_dropShadow_1_871"/>
<feBlend mode="normal" in="SourceGraphic" in2="effect1_dropShadow_1_871" result="shape"/>
</filter>
<clipPath id="clip0_1_871">
<rect width="13.75" height="13.75" fill="white" transform="translate(53.75 43.75)"/>
</clipPath>
</defs>
</svg>
