<svg width="51" height="50" viewBox="0 0 51 50" fill="none" xmlns="http://www.w3.org/2000/svg">
<circle cx="25.5" cy="25" r="24.5" fill="white" stroke="#19B269"/>
<g clip-path="url(#clip0_27_3972)">
<path d="M29.6814 25.2477L23.3216 18.9055C23.1132 18.6978 22.7759 18.6982 22.5679 18.9066C22.36 19.1149 22.3605 19.4525 22.5689 19.6603L28.5502 25.625L22.5687 31.5897C22.3604 31.7976 22.3598 32.1349 22.5676 32.3433C22.6719 32.4478 22.8085 32.5 22.9452 32.5C23.0814 32.5 23.2175 32.4481 23.3216 32.3444L29.6814 26.0023C29.7818 25.9025 29.8381 25.7666 29.8381 25.625C29.8381 25.4834 29.7816 25.3477 29.6814 25.2477Z" fill="#112137"/>
</g>
<defs>
<clipPath id="clip0_27_3972">
<rect width="13.75" height="13.75" fill="white" transform="translate(19.25 18.75)"/>
</clipPath>
</defs>
</svg>
