<svg width="51" height="50" viewBox="0 0 51 50" fill="none" xmlns="http://www.w3.org/2000/svg">
<circle cx="25.5" cy="25" r="24.5" fill="white" stroke="#19B269"/>
<g clip-path="url(#clip0_27_3966)">
<path d="M21.3186 26.0023L27.6784 32.3445C27.8868 32.5522 28.2241 32.5518 28.4321 32.3434C28.64 32.1351 28.6395 31.7975 28.4311 31.5897L22.4498 25.625L28.4313 19.6603C28.6396 19.4524 28.6402 19.1151 28.4324 18.9067C28.3281 18.8022 28.1915 18.75 28.0548 18.75C27.9186 18.75 27.7825 18.8019 27.6784 18.9056L21.3186 25.2477C21.2182 25.3475 21.1619 25.4834 21.1619 25.625C21.1619 25.7666 21.2184 25.9023 21.3186 26.0023Z" fill="#112137"/>
</g>
<defs>
<clipPath id="clip0_27_3966">
<rect width="13.75" height="13.75" fill="white" transform="translate(31.75 32.5) rotate(-180)"/>
</clipPath>
</defs>
</svg>
