<svg width="5" height="458" viewBox="0 0 5 458" fill="none" xmlns="http://www.w3.org/2000/svg">
<path d="M4.86424 3.92329L1.07685 0.135964C0.989247 0.0482965 0.872312 0 0.747627 0C0.622941 0 0.506006 0.0482965 0.418408 0.135964L0.139492 0.41481C-0.0419999 0.59651 -0.0419999 0.891824 0.139492 1.07325L3.31986 4.25362L0.135964 7.43752C0.0483657 7.52518 0 7.64205 0 7.76667C0 7.89142 0.0483657 8.00829 0.135964 8.09602L0.414879 8.3748C0.502546 8.46247 0.619413 8.51077 0.744098 8.51077C0.868783 8.51077 0.985719 8.46247 1.07332 8.3748L4.86424 4.58401C4.95205 4.49607 5.00028 4.37865 5 4.25383C5.00028 4.12852 4.95205 4.01117 4.86424 3.92329Z" fill="#041E42"/>
<path d="M4.86424 53.9233L1.07685 50.136C0.989247 50.0483 0.872312 50 0.747627 50C0.622941 50 0.506006 50.0483 0.418408 50.136L0.139492 50.4148C-0.0419999 50.5965 -0.0419999 50.8918 0.139492 51.0732L3.31986 54.2536L0.135964 57.4375C0.0483657 57.5252 0 57.6421 0 57.7667C0 57.8914 0.0483657 58.0083 0.135964 58.096L0.414879 58.3748C0.502546 58.4625 0.619413 58.5108 0.744098 58.5108C0.868783 58.5108 0.985719 58.4625 1.07332 58.3748L4.86424 54.584C4.95205 54.4961 5.00028 54.3786 5 54.2538C5.00028 54.1285 4.95205 54.0112 4.86424 53.9233Z" fill="#041E42"/>
<path d="M4.86424 103.923L1.07685 100.136C0.989247 100.048 0.872312 100 0.747627 100C0.622941 100 0.506006 100.048 0.418408 100.136L0.139492 100.415C-0.0419999 100.597 -0.0419999 100.892 0.139492 101.073L3.31986 104.254L0.135964 107.438C0.0483657 107.525 0 107.642 0 107.767C0 107.891 0.0483657 108.008 0.135964 108.096L0.414879 108.375C0.502546 108.462 0.619413 108.511 0.744098 108.511C0.868783 108.511 0.985719 108.462 1.07332 108.375L4.86424 104.584C4.95205 104.496 5.00028 104.379 5 104.254C5.00028 104.129 4.95205 104.011 4.86424 103.923Z" fill="#041E42"/>
<path d="M4.86424 153.923L1.07685 150.136C0.989247 150.048 0.872312 150 0.747627 150C0.622941 150 0.506006 150.048 0.418408 150.136L0.139492 150.415C-0.0419999 150.597 -0.0419999 150.892 0.139492 151.073L3.31986 154.254L0.135964 157.438C0.0483657 157.525 0 157.642 0 157.767C0 157.891 0.0483657 158.008 0.135964 158.096L0.414879 158.375C0.502546 158.462 0.619413 158.511 0.744098 158.511C0.868783 158.511 0.985719 158.462 1.07332 158.375L4.86424 154.584C4.95205 154.496 5.00028 154.379 5 154.254C5.00028 154.129 4.95205 154.011 4.86424 153.923Z" fill="#60C260"/>
<path d="M4.86424 203.923L1.07685 200.136C0.989247 200.048 0.872312 200 0.747627 200C0.622941 200 0.506006 200.048 0.418408 200.136L0.139492 200.415C-0.0419999 200.597 -0.0419999 200.892 0.139492 201.073L3.31986 204.254L0.135964 207.438C0.0483657 207.525 0 207.642 0 207.767C0 207.891 0.0483657 208.008 0.135964 208.096L0.414879 208.375C0.502546 208.462 0.619413 208.511 0.744098 208.511C0.868783 208.511 0.985719 208.462 1.07332 208.375L4.86424 204.584C4.95205 204.496 5.00028 204.379 5 204.254C5.00028 204.129 4.95205 204.011 4.86424 203.923Z" fill="#041E42"/>
<path d="M4.86424 253.923L1.07685 250.136C0.989247 250.048 0.872312 250 0.747627 250C0.622941 250 0.506006 250.048 0.418408 250.136L0.139492 250.415C-0.0419999 250.597 -0.0419999 250.892 0.139492 251.073L3.31986 254.254L0.135964 257.438C0.0483657 257.525 0 257.642 0 257.767C0 257.891 0.0483657 258.008 0.135964 258.096L0.414879 258.375C0.502546 258.462 0.619413 258.511 0.744098 258.511C0.868783 258.511 0.985719 258.462 1.07332 258.375L4.86424 254.584C4.95205 254.496 5.00028 254.379 5 254.254C5.00028 254.129 4.95205 254.011 4.86424 253.923Z" fill="#041E42"/>
<path d="M4.86424 303.923L1.07685 300.136C0.989247 300.048 0.872312 300 0.747627 300C0.622941 300 0.506006 300.048 0.418408 300.136L0.139492 300.415C-0.0419999 300.597 -0.0419999 300.892 0.139492 301.073L3.31986 304.254L0.135964 307.438C0.0483657 307.525 0 307.642 0 307.767C0 307.891 0.0483657 308.008 0.135964 308.096L0.414879 308.375C0.502546 308.462 0.619413 308.511 0.744098 308.511C0.868783 308.511 0.985719 308.462 1.07332 308.375L4.86424 304.584C4.95205 304.496 5.00028 304.379 5 304.254C5.00028 304.129 4.95205 304.011 4.86424 303.923Z" fill="#041E42"/>
<path d="M4.86424 354.923L1.07685 351.136C0.989247 351.048 0.872312 351 0.747627 351C0.622941 351 0.506006 351.048 0.418408 351.136L0.139492 351.415C-0.0419999 351.597 -0.0419999 351.892 0.139492 352.073L3.31986 355.254L0.135964 358.438C0.0483657 358.525 0 358.642 0 358.767C0 358.891 0.0483657 359.008 0.135964 359.096L0.414879 359.375C0.502546 359.462 0.619413 359.511 0.744098 359.511C0.868783 359.511 0.985719 359.462 1.07332 359.375L4.86424 355.584C4.95205 355.496 5.00028 355.379 5 355.254C5.00028 355.129 4.95205 355.011 4.86424 354.923Z" fill="#041E42"/>
<path d="M4.86424 403.923L1.07685 400.136C0.989247 400.048 0.872312 400 0.747627 400C0.622941 400 0.506006 400.048 0.418408 400.136L0.139492 400.415C-0.0419999 400.597 -0.0419999 400.892 0.139492 401.073L3.31986 404.254L0.135964 407.438C0.0483657 407.525 0 407.642 0 407.767C0 407.891 0.0483657 408.008 0.135964 408.096L0.414879 408.375C0.502546 408.462 0.619413 408.511 0.744098 408.511C0.868783 408.511 0.985719 408.462 1.07332 408.375L4.86424 404.584C4.95205 404.496 5.00028 404.379 5 404.254C5.00028 404.129 4.95205 404.011 4.86424 403.923Z" fill="#041E42"/>
<path d="M4.86424 452.923L1.07685 449.136C0.989247 449.048 0.872312 449 0.747627 449C0.622941 449 0.506006 449.048 0.418408 449.136L0.139492 449.415C-0.0419999 449.597 -0.0419999 449.892 0.139492 450.073L3.31986 453.254L0.135964 456.438C0.0483657 456.525 0 456.642 0 456.767C0 456.891 0.0483657 457.008 0.135964 457.096L0.414879 457.375C0.502546 457.462 0.619413 457.511 0.744098 457.511C0.868783 457.511 0.985719 457.462 1.07332 457.375L4.86424 453.584C4.95205 453.496 5.00028 453.379 5 453.254C5.00028 453.129 4.95205 453.011 4.86424 452.923Z" fill="#041E42"/>
</svg>
