<svg width="120" height="120" viewBox="0 0 120 120" fill="none" xmlns="http://www.w3.org/2000/svg">
<g filter="url(#filter0_d_1_870)">
<circle cx="60" cy="50" r="25" fill="white"/>
</g>
<g clip-path="url(#clip0_1_870)">
<path d="M55.8186 51.0023L62.1784 57.3445C62.3868 57.5522 62.7241 57.5518 62.9321 57.3434C63.14 57.1351 63.1395 56.7975 62.9311 56.5897L56.9498 50.625L62.9313 44.6603C63.1396 44.4524 63.1402 44.1151 62.9324 43.9067C62.8281 43.8022 62.6915 43.75 62.5548 43.75C62.4186 43.75 62.2825 43.8019 62.1784 43.9056L55.8186 50.2477C55.7182 50.3475 55.6619 50.4834 55.6619 50.625C55.6619 50.7666 55.7184 50.9023 55.8186 51.0023Z" fill="#112137"/>
</g>
<defs>
<filter id="filter0_d_1_870" x="0" y="0" width="120" height="120" filterUnits="userSpaceOnUse" color-interpolation-filters="sRGB">
<feFlood flood-opacity="0" result="BackgroundImageFix"/>
<feColorMatrix in="SourceAlpha" type="matrix" values="0 0 0 0 0 0 0 0 0 0 0 0 0 0 0 0 0 0 127 0" result="hardAlpha"/>
<feOffset dy="10"/>
<feGaussianBlur stdDeviation="17.5"/>
<feComposite in2="hardAlpha" operator="out"/>
<feColorMatrix type="matrix" values="0 0 0 0 0.0666667 0 0 0 0 0.129412 0 0 0 0 0.215686 0 0 0 0.1 0"/>
<feBlend mode="normal" in2="BackgroundImageFix" result="effect1_dropShadow_1_870"/>
<feBlend mode="normal" in="SourceGraphic" in2="effect1_dropShadow_1_870" result="shape"/>
</filter>
<clipPath id="clip0_1_870">
<rect width="13.75" height="13.75" fill="white" transform="translate(66.25 57.5) rotate(-180)"/>
</clipPath>
</defs>
</svg>
