<svg width="50" height="50" viewBox="0 0 50 50" fill="none" xmlns="http://www.w3.org/2000/svg">
<circle cx="25" cy="25" r="24.5" fill="white" stroke="#EAEAEA"/>
<g clip-path="url(#clip0_1_757)">
<path d="M20.8186 26.0023L27.1784 32.3445C27.3868 32.5522 27.7241 32.5518 27.9321 32.3434C28.14 32.1351 28.1395 31.7975 27.9311 31.5897L21.9498 25.625L27.9313 19.6603C28.1396 19.4524 28.1402 19.1151 27.9324 18.9067C27.8281 18.8022 27.6915 18.75 27.5548 18.75C27.4186 18.75 27.2825 18.8019 27.1784 18.9056L20.8186 25.2477C20.7182 25.3475 20.6619 25.4834 20.6619 25.625C20.6619 25.7666 20.7184 25.9023 20.8186 26.0023Z" fill="#112137"/>
</g>
<defs>
<clipPath id="clip0_1_757">
<rect width="13.75" height="13.75" fill="white" transform="translate(31.25 32.5) rotate(-180)"/>
</clipPath>
</defs>
</svg>
