<svg width="50" height="50" viewBox="0 0 50 50" fill="none" xmlns="http://www.w3.org/2000/svg">
<circle cx="25" cy="25" r="24.5" fill="white" stroke="#112137"/>
<g clip-path="url(#clip0_1_758)">
<path d="M29.1814 25.2477L22.8216 18.9055C22.6132 18.6978 22.2759 18.6982 22.0679 18.9066C21.86 19.1149 21.8605 19.4525 22.0689 19.6603L28.0502 25.625L22.0687 31.5897C21.8604 31.7976 21.8598 32.1349 22.0676 32.3433C22.1719 32.4478 22.3085 32.5 22.4452 32.5C22.5814 32.5 22.7175 32.4481 22.8216 32.3444L29.1814 26.0023C29.2818 25.9025 29.3381 25.7666 29.3381 25.625C29.3381 25.4834 29.2816 25.3477 29.1814 25.2477Z" fill="#112137"/>
</g>
<defs>
<clipPath id="clip0_1_758">
<rect width="13.75" height="13.75" fill="white" transform="translate(18.75 18.75)"/>
</clipPath>
</defs>
</svg>
