<svg width="450" height="40" viewBox="0 0 450 40" fill="none" xmlns="http://www.w3.org/2000/svg">
<rect y="17" width="450" height="6" rx="3" fill="#F3F5F6"/>
<rect y="17" width="256" height="6" rx="3" fill="#F5C34B"/>
<rect x="235" y="1" width="38" height="38" rx="19" fill="white" stroke="#F5C34B" stroke-width="2"/>
<g clip-path="url(#clip0_1_1261)">
<path d="M263.294 19.1226C264.103 18.3341 263.656 16.9602 262.539 16.7978L258.192 16.1662C257.748 16.1017 257.364 15.8228 257.166 15.4205L255.222 11.4819C254.722 10.4689 253.277 10.4689 252.778 11.4819L250.834 15.4205C250.635 15.8228 250.251 16.1017 249.807 16.1662L245.461 16.7978C244.343 16.9602 243.897 18.3341 244.706 19.1226L247.851 22.1884C248.172 22.5015 248.319 22.9526 248.243 23.3948L247.5 27.7237C247.309 28.8371 248.478 29.6863 249.478 29.1605L253.366 27.1167C253.763 26.908 254.237 26.908 254.634 27.1167L258.522 29.1605C259.522 29.6861 260.69 28.8371 260.499 27.7237L259.757 23.3948C259.681 22.9527 259.828 22.5015 260.149 22.1884L263.294 19.1226Z" fill="#F4E64C"/>
<path d="M249.063 28.114L249.805 23.7851C249.881 23.3429 249.735 22.8918 249.413 22.5787L246.268 19.5129C245.459 18.7243 245.906 17.3504 247.023 17.1881L251.37 16.5565C251.814 16.492 252.198 16.2132 252.396 15.8108L254.34 11.8722C254.5 11.5483 254.757 11.3286 255.048 11.2118C254.446 10.4789 253.228 10.5687 252.778 11.4816L250.834 15.4202C250.635 15.8226 250.251 16.1013 249.807 16.1659L245.461 16.7975C244.343 16.9598 243.897 18.3337 244.706 19.1223L247.851 22.1881C248.172 22.5012 248.319 22.9522 248.243 23.3944L247.5 27.7234C247.317 28.7924 248.387 29.617 249.358 29.2158C249.117 28.9291 248.99 28.5412 249.063 28.114Z" fill="#FAB659"/>
<path d="M250.222 19.1079V19.7387C250.222 19.9006 250.353 20.0317 250.515 20.0317C250.676 20.0317 250.808 19.9006 250.808 19.7387V19.1079C250.808 18.9462 250.676 18.8149 250.515 18.8149C250.353 18.8149 250.222 18.9462 250.222 19.1079Z" fill="black"/>
<path d="M257.778 19.7387V19.1079C257.778 18.9462 257.647 18.8149 257.485 18.8149C257.323 18.8149 257.192 18.9462 257.192 19.1079V19.7387C257.192 19.9006 257.323 20.0317 257.485 20.0317C257.647 20.0317 257.778 19.9006 257.778 19.7387Z" fill="black"/>
<path d="M254 20.3685C254.42 20.3685 254.814 20.1933 255.081 19.8876C255.187 19.7659 255.175 19.5808 255.053 19.4743C254.931 19.3678 254.746 19.3801 254.639 19.5021C254.484 19.6803 254.251 19.7825 254 19.7825C253.749 19.7825 253.516 19.6803 253.36 19.5021C253.254 19.3803 253.069 19.3678 252.947 19.4743C252.825 19.5808 252.813 19.7659 252.919 19.8876C253.186 20.1933 253.58 20.3685 254 20.3685Z" fill="black"/>
<path d="M247.954 23.3456L247.212 27.6747C247.104 28.3005 247.357 28.921 247.871 29.2943C248.384 29.6675 249.052 29.7157 249.615 29.4203L253.502 27.3766C253.814 27.2125 254.186 27.2125 254.498 27.3766C254.498 27.3766 258.385 29.4203 258.386 29.4203C258.93 29.7067 259.618 29.6657 260.129 29.2943C260.643 28.921 260.896 28.3005 260.788 27.6747L260.45 25.6999C260.422 25.5405 260.271 25.4333 260.111 25.4607C259.952 25.4881 259.845 25.6395 259.872 25.7989L260.211 27.7737C260.281 28.1842 260.122 28.5754 259.785 28.8202C259.448 29.0651 259.027 29.0955 258.658 28.9017L254.771 26.8579C254.288 26.6042 253.712 26.6042 253.229 26.8579L249.342 28.9017C248.973 29.0955 248.552 29.0651 248.215 28.8202C247.878 28.5754 247.719 28.1842 247.789 27.7737L248.532 23.4448C248.624 22.9076 248.446 22.3596 248.056 21.9791L244.91 18.9133C244.612 18.6226 244.511 18.2126 244.64 17.8165C244.768 17.4203 245.091 17.1481 245.503 17.0882L249.85 16.4566C250.389 16.3782 250.855 16.0396 251.097 15.5507L251.998 13.7245C252.07 13.5794 252.01 13.4038 251.865 13.3321C251.72 13.2605 251.544 13.32 251.473 13.4651L250.571 15.2914C250.415 15.6071 250.114 15.8261 249.766 15.8768L245.419 16.5083C244.791 16.5996 244.279 17.0314 244.082 17.6353C243.886 18.2391 244.047 18.8896 244.501 19.3327L247.647 22.3985C247.899 22.6445 248.014 22.9985 247.954 23.3456Z" fill="black"/>
<path d="M262.581 16.5083L258.234 15.8768C257.886 15.8261 257.584 15.6073 257.429 15.2914L255.485 11.3527C255.204 10.7834 254.635 10.4297 254 10.4297C253.365 10.4297 252.796 10.7834 252.515 11.3527L252.02 12.3555C251.948 12.5005 252.008 12.6762 252.153 12.7478C252.298 12.8194 252.474 12.7599 252.546 12.6147L253.04 11.6121C253.225 11.2386 253.583 11.0156 254 11.0156C254.416 11.0156 254.775 11.2386 254.959 11.6121L256.903 15.5507C257.145 16.0396 257.611 16.3782 258.15 16.4566L262.497 17.0882C262.909 17.1481 263.232 17.4203 263.36 17.8165C263.489 18.2126 263.388 18.6226 263.09 18.9133L259.944 21.9791C259.554 22.3596 259.376 22.9076 259.468 23.4448C259.468 23.4448 259.627 24.3741 259.628 24.3759C259.655 24.5326 259.81 24.642 259.966 24.6152C260.126 24.5879 260.233 24.4363 260.205 24.2769L260.046 23.3458C259.986 22.9987 260.101 22.6445 260.353 22.3987L263.499 19.3329C263.953 18.8898 264.114 18.2393 263.918 17.6353C263.721 17.0314 263.209 16.5996 262.581 16.5083Z" fill="black"/>
</g>
<defs>
<clipPath id="clip0_1_1261">
<rect width="20" height="20" fill="white" transform="translate(244 10)"/>
</clipPath>
</defs>
</svg>
