<svg width="16" height="16" viewBox="0 0 16 16" fill="none" xmlns="http://www.w3.org/2000/svg">
<g clip-path="url(#clip0_1_929)">
<path d="M13.3592 9.41589C12.7204 8.02561 11.8152 6.84477 10.7296 5.98058L11.574 3.16595C11.5871 3.12227 11.5938 3.07689 11.5938 3.03127C11.5938 2.36642 10.9467 1.83755 10.0146 1.67624L10.3254 0.598829C10.3971 0.35011 10.2537 0.0902974 10.0049 0.0185161C9.75625 -0.0532026 9.49638 0.0902349 9.42459 0.338985L9.04847 1.64295C8.65794 1.68189 8.29666 1.78408 8 1.93964C7.70334 1.78408 7.34206 1.68189 6.95153 1.64292L6.57541 0.338954C6.50366 0.0902037 6.24372 -0.0532651 5.99509 0.0184849C5.74634 0.0902349 5.60287 0.350047 5.67462 0.598797L5.98541 1.6762C5.05331 1.83755 4.40625 2.36642 4.40625 3.03127C4.40625 3.07689 4.41291 3.12227 4.42603 3.16595L5.27041 5.98058C4.18484 6.84477 3.27959 8.02564 2.64078 9.41589C1.95581 10.9066 1.59375 12.6015 1.59375 14.3174V14.3594C1.59375 14.5504 1.70959 14.7222 1.88663 14.7939C3.86363 15.5942 5.92047 16 8 16C10.0795 16 12.1364 15.5942 14.1134 14.7939C14.2904 14.7222 14.4062 14.5504 14.4062 14.3594V14.3174C14.4062 12.6015 14.0442 10.9066 13.3592 9.41589ZM4.40625 14.3594V14.6267C3.77597 14.4723 3.15144 14.2771 2.53463 14.0414C2.60903 11.0052 3.90675 8.19761 5.96803 6.62502H6.13478C5.62534 7.45752 5.20262 8.55349 4.90487 9.81905C4.49275 11.5705 4.40625 13.2548 4.40625 14.3594ZM7.53125 15.055C6.79772 15.0321 6.06763 14.9554 5.34375 14.8255V14.3594C5.34375 13.3045 5.42594 11.6977 5.81741 10.0338C6.12231 8.73783 6.55991 7.64883 7.08284 6.88455L7.26041 6.62505H7.53125V15.055ZM6.16128 5.68752L5.35297 2.99314C5.42225 2.83749 5.879 2.56252 6.59375 2.56252C7.13269 2.56252 7.52506 2.71805 7.71259 2.86358C7.88172 2.99483 8.11828 2.99483 8.28744 2.86358C8.47494 2.71805 8.86731 2.56252 9.40625 2.56252C10.121 2.56252 10.5778 2.83749 10.6471 2.99314L9.83872 5.68752H6.16128ZM10.6562 14.8255C9.93237 14.9554 9.20228 15.0321 8.46875 15.055V6.62502H8.73959L8.91716 6.88452C9.98987 8.45233 10.6562 11.3165 10.6562 14.3594V14.8255ZM11.5938 14.6267V14.3594C11.5938 11.2519 10.9515 8.39583 9.86547 6.62502H10.032C12.0933 8.19761 13.391 11.0052 13.4654 14.0415C12.8486 14.2771 12.224 14.4723 11.5938 14.6267Z" fill="#041E42"/>
</g>
<defs>
<clipPath id="clip0_1_929">
<rect width="16" height="16" fill="white"/>
</clipPath>
</defs>
</svg>
