<svg width="16" height="16" viewBox="0 0 16 16" fill="none" xmlns="http://www.w3.org/2000/svg">
<g clip-path="url(#clip0_1_903)">
<path d="M3.07707 4.41348C2.89453 4.59601 2.89453 4.89194 3.07707 5.07448C3.16833 5.16575 3.28796 5.2114 3.40755 5.2114C3.52714 5.2114 3.6468 5.16578 3.73804 5.07448C4.33036 4.48215 4.33036 3.5184 3.73807 2.92607C3.51019 2.6982 3.51019 2.32748 3.73807 2.09964C3.92057 1.9171 3.92054 1.62114 3.73804 1.43864C3.55547 1.25613 3.2596 1.25613 3.077 1.43864C2.48474 2.03096 2.48474 2.99472 3.07704 3.58704C3.30491 3.81489 3.30491 4.18563 3.07707 4.41348Z" fill="#041E42"/>
<path d="M7.47596 2.36472C7.29342 2.54725 7.29342 2.84318 7.47596 3.02572C7.56722 3.11699 7.68685 3.16264 7.80644 3.16264C7.92603 3.16264 8.04569 3.11702 8.13692 3.02572C8.62305 2.53962 8.62305 1.74864 8.13692 1.26254C8.01531 1.14089 8.01531 0.942994 8.13692 0.821344C8.31946 0.638807 8.31946 0.342878 8.13692 0.16034C7.95442 -0.0221968 7.65846 -0.0221968 7.47592 0.16034C6.9898 0.646441 6.9898 1.43742 7.47592 1.92352C7.59761 2.04517 7.59761 2.24307 7.47596 2.36472Z" fill="#041E42"/>
<path d="M12.0322 4.35195C11.8496 4.53449 11.8496 4.83042 12.0322 5.01295C12.1234 5.10422 12.2431 5.14987 12.3627 5.14987C12.4822 5.14987 12.6019 5.10425 12.6931 5.01295C13.2855 4.42063 13.2855 3.45687 12.6931 2.86454C12.4653 2.6367 12.4653 2.26599 12.6931 2.03814C12.8757 1.8556 12.8757 1.55967 12.6931 1.37714C12.5106 1.1946 12.2147 1.1946 12.0321 1.37714C11.4398 1.96946 11.4398 2.93322 12.0321 3.52555C12.26 3.75339 12.26 4.12411 12.0322 4.35195Z" fill="#041E42"/>
<path d="M14.5266 10.573H14.2755V9.85739H15.5326C15.7907 9.85739 16 9.64812 16 9.38999C16 9.13186 15.7907 8.92258 15.5326 8.92258H14.142C13.5147 7.11174 11.8145 5.91945 9.80131 5.91945H9.49955V5.59333C9.49955 4.66631 8.74535 3.91211 7.81833 3.91211C6.89131 3.91211 6.13714 4.66631 6.13714 5.59333V5.92061C4.17105 5.96164 2.51641 7.14371 1.89595 8.92258H0.467404C0.209272 8.92258 0 9.13186 0 9.38999C0 9.64812 0.209272 9.85739 0.467404 9.85739H1.72444V10.573H1.47924C0.679512 10.573 0.0288544 11.2236 0.0288544 12.0234C0.0288544 12.8232 0.679512 13.4738 1.47924 13.4738H1.72444V14.4273C1.72444 15.2815 2.41932 15.9763 3.27345 15.9763H12.7265C13.5806 15.9763 14.2756 15.2814 14.2756 14.4273V13.4738H14.5266C15.3264 13.4738 15.977 12.8232 15.977 12.0234C15.977 11.2236 15.3263 10.573 14.5266 10.573ZM7.81833 4.84692C8.2299 4.84692 8.56475 5.18176 8.56475 5.59333V5.91945H7.07195V5.59333C7.07195 5.18173 7.40677 4.84692 7.81833 4.84692ZM6.24302 6.85426C6.39063 6.8552 9.55611 6.85376 9.80131 6.85426C10.6474 6.85426 11.4318 7.10875 12.0698 7.59017C12.5363 7.94222 12.898 8.39613 13.1366 8.92258H2.90317C3.48135 7.66415 4.75534 6.85426 6.24302 6.85426ZM1.47924 12.539C1.19497 12.539 0.963663 12.3077 0.963663 12.0234C0.963663 11.7392 1.19497 11.5079 1.47924 11.5079H1.72444V12.539H1.47924V12.539ZM13.3407 14.4273C13.3407 14.766 13.0652 15.0415 12.7265 15.0415H3.27345C2.93477 15.0415 2.65925 14.766 2.65925 14.4273V9.85745H13.3407V14.4273ZM14.5266 12.539H14.2755V11.5078H14.5266C14.8109 11.5078 15.0422 11.7391 15.0422 12.0234C15.0422 12.3077 14.8109 12.539 14.5266 12.539Z" fill="#041E42"/>
</g>
<defs>
<clipPath id="clip0_1_903">
<rect width="16" height="16" fill="white"/>
</clipPath>
</defs>
</svg>
