<svg width="35" height="35" viewBox="0 0 35 35" fill="none" xmlns="http://www.w3.org/2000/svg">
<path d="M34.9417 19.8327L32.285 4.76516C31.9239 2.71799 29.9644 1.34605 27.9176 1.70708L5.13089 5.72507C3.08365 6.08603 1.71178 8.04519 2.07274 10.0924L2.26796 11.1996C0.934684 11.7813 0 13.1115 0 14.6567V29.5802C0 31.659 1.69122 33.3502 3.76999 33.3502H26.39C28.4687 33.3502 30.16 31.659 30.16 29.5802V24.5039L31.8836 24.2C32.8753 24.0251 33.7395 23.4745 34.3172 22.6496C34.8948 21.8247 35.1166 20.8242 34.9417 19.8327ZM32.6327 21.4701C32.3702 21.8451 31.9773 22.0953 31.5265 22.1749L30.16 22.4158V21.2438V16.5793V14.6566C30.16 12.5778 28.4687 10.8866 26.39 10.8866H4.30095L4.09791 9.73525C4.0184 9.28449 4.1193 8.82976 4.38183 8.45475C4.64436 8.07981 5.03726 7.82955 5.48801 7.75004L28.2747 3.73211C28.375 3.71443 28.4746 3.70593 28.5731 3.70593C29.3885 3.70593 30.1135 4.29186 30.2599 5.12214L32.9166 20.1896C32.9961 20.6405 32.8953 21.0952 32.6327 21.4701ZM26.39 31.2938H3.76999C2.8251 31.2938 2.05636 30.5251 2.05636 29.5802V22.272H28.1036V29.5801C28.1036 30.5251 27.3349 31.2938 26.39 31.2938ZM3.76999 12.943H26.39C27.3349 12.943 28.1036 13.7118 28.1036 14.6567V15.5512H2.05636V14.6567C2.05636 13.7118 2.8251 12.943 3.76999 12.943ZM28.1036 17.6075V20.2157H2.05636V17.6075H28.1036Z" fill="#60C260"/>
<path d="M9.89386 27.165H5.22935C4.66152 27.165 4.20117 27.6254 4.20117 28.1932C4.20117 28.7611 4.66152 29.2214 5.22935 29.2214H9.89386C10.4617 29.2214 10.922 28.7611 10.922 28.1932C10.922 27.6254 10.4617 27.165 9.89386 27.165Z" fill="#60C260"/>
</svg>
