<svg width="16" height="16" viewBox="0 0 16 16" fill="none" xmlns="http://www.w3.org/2000/svg">
<g clip-path="url(#clip0_1_897)">
<path d="M15.89 8.39628L13.39 4.64628C13.3031 4.51587 13.1567 4.43753 13 4.43753H8.00096C8.00065 4.43753 8.00031 4.4375 7.99999 4.4375C7.99968 4.4375 7.99934 4.43753 7.99902 4.43753H2.99999C2.84324 4.43753 2.6969 4.51587 2.60999 4.64628L0.109991 8.39628C-0.0182275 8.58859 0.0128975 8.84566 0.183273 9.00184L7.68327 15.8768C7.77284 15.959 7.88643 16 7.99999 16C8.11356 16 8.22715 15.959 8.31674 15.8768L15.8167 9.00184C15.9871 8.84566 16.0182 8.58859 15.89 8.39628ZM6.37584 8.18753L7.99999 5.75131L9.62415 8.18753H6.37584ZM9.83077 9.12503L7.99999 14.1597L6.16921 9.12503H9.83077ZM8.87587 5.37503H12.1241L10.5 7.81119L8.87587 5.37503ZM5.49999 7.81119L3.87587 5.37503H7.12412L5.49999 7.81119ZM4.62415 8.18753H1.37584L2.99999 5.75131L4.62415 8.18753ZM5.17168 9.12503L6.90499 13.8916L1.70505 9.12503H5.17168ZM10.8283 9.12503H14.2949L9.09499 13.8916L10.8283 9.12503ZM11.3758 8.18753L13 5.75131L14.6242 8.18753H11.3758Z" fill="#041E42"/>
<path d="M12.9942 3.47522C13.1141 3.47522 13.2341 3.42944 13.3256 3.33791L14.6514 2.01209C14.8345 1.82906 14.8345 1.53225 14.6514 1.34919C14.4684 1.16616 14.1716 1.16616 13.9885 1.34919L12.6627 2.675C12.4796 2.85803 12.4796 3.15485 12.6627 3.33791C12.7542 3.42944 12.8742 3.47522 12.9942 3.47522Z" fill="#041E42"/>
<path d="M8 2.8125C8.25887 2.8125 8.46875 2.60262 8.46875 2.34375V0.46875C8.46875 0.209875 8.25887 0 8 0C7.74112 0 7.53125 0.209875 7.53125 0.46875V2.34375C7.53125 2.60262 7.74112 2.8125 8 2.8125Z" fill="#041E42"/>
<path d="M2.67597 3.33788C2.7675 3.42941 2.88747 3.47519 3.00741 3.47519C3.12734 3.47519 3.24734 3.42941 3.33884 3.33788C3.52191 3.15485 3.52191 2.85803 3.33884 2.67497L2.01309 1.34919C1.83006 1.16616 1.53325 1.16616 1.35019 1.34919C1.16713 1.53222 1.16713 1.82903 1.35019 2.01209L2.67597 3.33788Z" fill="#041E42"/>
</g>
<defs>
<clipPath id="clip0_1_897">
<rect width="16" height="16" fill="white"/>
</clipPath>
</defs>
</svg>
