<svg width="30" height="31" viewBox="0 0 30 31" fill="none" xmlns="http://www.w3.org/2000/svg">
<g clip-path="url(#clip0_12_579)">
<path d="M30 8.37132V7.89794C30 6.11556 28.5499 4.66553 26.7676 4.66553H3.23241C1.45003 4.66553 0 6.11556 0 7.89794V8.37132V8.37478V23.9019C0 25.6842 1.45003 27.1342 3.23241 27.1342H26.7678C28.55 27.1342 30 25.6842 30 23.9019V8.37478C30 8.37366 30 8.37249 30 8.37132ZM3.23241 6.42335H26.7676C27.5806 6.42335 28.2422 7.08482 28.2422 7.89794V7.89835L16.4708 15.7459C15.6873 16.2682 14.3128 16.2682 13.5294 15.7459L1.75783 7.89829V7.89788C1.75783 7.08482 2.4193 6.42335 3.23241 6.42335ZM26.7678 25.3764H3.23241C2.4193 25.3764 1.75783 24.7149 1.75783 23.9019V10.0109L12.5543 17.2085C13.2401 17.6657 14.1199 17.8942 15.0001 17.8942C15.88 17.8942 16.7602 17.6656 17.4459 17.2085L28.2422 10.0109V23.9019C28.2422 24.7149 27.5807 25.3764 26.7678 25.3764Z" fill="#041E42"/>
</g>
<defs>
<clipPath id="clip0_12_579">
<rect width="30" height="30" fill="white" transform="translate(0 0.899902)"/>
</clipPath>
</defs>
</svg>
