<svg width="14" height="14" viewBox="0 0 14 14" fill="none" xmlns="http://www.w3.org/2000/svg">
<g clip-path="url(#clip0_1_952)">
<path d="M13.4886 0.495054C12.6497 -0.351373 11.2208 -0.0706344 10.76 1.01904C10.1189 0.646265 9.28166 0.734202 8.73322 1.28266L8.34051 1.67538L7.70034 1.0352C7.41534 0.750199 6.95162 0.750226 6.66667 1.0352L5.73031 1.97156C5.44468 2.25717 5.44459 2.71958 5.73031 3.00524L6.1097 3.38463C3.81061 4.52471 2.75463 5.77254 0.673386 7.85381C-0.190567 8.71777 -0.190649 10.1161 0.673386 10.9801L3.04532 13.352C3.90927 14.216 5.30757 14.2161 6.17161 13.352C8.2482 11.2754 9.50008 10.216 10.6407 7.91572L10.9676 8.24264L10.9677 8.24267C11.2526 8.52756 11.7163 8.52762 12.0013 8.24264L12.9377 7.30625C13.2227 7.02128 13.2227 6.55758 12.9377 6.27258L12.2975 5.6324L12.6902 5.23966C13.2389 4.69101 13.3266 3.85325 12.9534 3.21215C14.0429 2.7493 14.32 1.33396 13.4886 0.495054ZM5.59157 12.772C5.04816 13.3153 4.16876 13.3154 3.62533 12.772L1.2534 10.4001C0.710026 9.85666 0.709999 8.97726 1.2534 8.43383C3.3374 6.34982 4.39361 5.0902 6.72398 3.99897L10.0264 7.30141C8.9333 9.63575 7.66974 10.6938 5.59157 12.772ZM11.4845 7.59938L6.37354 2.48842L7.18352 1.67844C7.40686 1.90178 12.0718 6.56674 12.2945 6.7894L11.4845 7.59938ZM12.422 2.51592C11.9724 2.58004 11.7894 3.13001 12.1102 3.45083C12.4434 3.7841 12.4434 4.32635 12.1102 4.65962L11.7175 5.05236L8.92056 2.25542L9.31327 1.86268C9.64653 1.52941 10.1888 1.52947 10.522 1.86268C10.8432 2.18386 11.3925 1.99951 11.4571 1.54973C11.5562 0.861105 12.4082 0.570194 12.906 1.07247C13.3839 1.55468 13.1256 2.41565 12.422 2.51592Z" fill="#041E42"/>
<path d="M5.32906 7.82227C5.1689 7.66212 4.90922 7.66209 4.74904 7.82227C4.58886 7.98246 4.58886 8.24214 4.74904 8.40233L5.6239 9.27723C5.70399 9.35732 5.80894 9.39735 5.91391 9.39735C6.27603 9.39735 6.46306 8.95634 6.20395 8.69718L5.32906 7.82227Z" fill="#041E42"/>
<path d="M6.1006 6.47071C5.94042 6.63089 5.94042 6.89057 6.1006 7.05075L6.97546 7.92564C7.05555 8.00573 7.16049 8.04576 7.26546 8.04576C7.62755 8.04576 7.81466 7.60476 7.55547 7.3456L6.68061 6.47071C6.52046 6.31053 6.26078 6.31056 6.1006 6.47071Z" fill="#041E42"/>
<path d="M3.97752 9.17385C3.81737 9.01367 3.55766 9.01367 3.39748 9.17385C3.2373 9.33403 3.2373 9.59371 3.39748 9.75389L4.27234 10.6288C4.35243 10.7088 4.45738 10.7489 4.56235 10.7489C4.92441 10.7489 5.11153 10.3079 4.85236 10.0487L3.97752 9.17385Z" fill="#041E42"/>
</g>
<defs>
<clipPath id="clip0_1_952">
<rect width="14" height="14" fill="white"/>
</clipPath>
</defs>
</svg>
