<svg width="30" height="30" viewBox="0 0 30 30" fill="none" xmlns="http://www.w3.org/2000/svg">
<path d="M12.9159 16.1475C12.6759 16.1475 12.4359 16.2393 12.2531 16.4221L4.6875 23.9887V19.6228C4.6875 19.1043 4.26844 18.6853 3.75 18.6853C3.23156 18.6853 2.8125 19.1043 2.8125 19.6228V26.2509C2.8125 26.7693 3.23156 27.1884 3.75 27.1884H10.3781C10.8966 27.1884 11.3156 26.7693 11.3156 26.2509C11.3156 25.7325 10.8966 25.3134 10.3781 25.3134H6.01406L13.5788 17.7478C13.9453 17.3812 13.9453 16.7887 13.5788 16.4221C13.3959 16.2384 13.1559 16.1475 12.9159 16.1475Z" fill="#041E42"/>
<path d="M26.3542 2.91699H19.7261C19.2076 2.91699 18.7886 3.33605 18.7886 3.85449C18.7886 4.37293 19.2076 4.79199 19.7261 4.79199H24.0911L16.4204 12.4626C16.0539 12.8292 16.0539 13.4217 16.4204 13.7882C16.787 14.1548 17.3795 14.1548 17.7461 13.7882L25.4167 6.11762V10.4826C25.4167 11.0011 25.8357 11.4201 26.3542 11.4201C26.8726 11.4201 27.2917 11.0011 27.2917 10.4826V3.85449C27.2917 3.33699 26.8726 2.91699 26.3542 2.91699Z" fill="#041E42"/>
</svg>
