<svg width="16" height="16" viewBox="0 0 16 16" fill="none" xmlns="http://www.w3.org/2000/svg">
<path d="M15.9532 9.79847L15.0522 4.90534C14.839 3.74697 13.8313 2.90625 12.6561 2.90625H11.0014C10.8887 2.90625 10.7799 2.94681 10.6947 3.02047L9.74271 3.84394H6.25724L5.30524 3.02047C5.22005 2.94678 5.11121 2.90625 4.99859 2.90625H3.3438C2.16868 2.90625 1.16099 3.74697 0.947712 4.90531L0.0467435 9.79847C-0.228319 11.2922 0.738025 12.7304 2.22302 13.0358C3.26443 13.2499 4.31809 12.8614 4.97287 12.0219L6.00205 10.7023H9.99796L11.0271 12.0219C11.6779 12.8563 12.7291 13.2512 13.777 13.0358C15.2585 12.7312 16.2288 11.2953 15.9532 9.79847ZM13.5881 12.1176C12.8985 12.2594 12.2004 12.0018 11.7664 11.4454L10.5964 9.94541C10.5076 9.83153 10.3712 9.76494 10.2268 9.76494H5.77315C5.62871 9.76494 5.49233 9.83153 5.40352 9.94541L4.23359 11.4454C3.79959 12.0018 3.10149 12.2594 2.41181 12.1176C1.42787 11.9153 0.785931 10.9609 0.968712 9.96822L1.86968 5.07503C2.00106 4.3615 2.62099 3.84363 3.34377 3.84363H4.82393L5.77593 4.66709C5.86112 4.74078 5.96996 4.78131 6.08258 4.78131H9.91727C10.0299 4.78131 10.1388 4.74075 10.2239 4.66709L11.1759 3.84363H12.6561C13.3789 3.84363 13.9988 4.3615 14.1302 5.07503L15.0312 9.96819C15.2139 10.96 14.573 11.9151 13.5881 12.1176Z" fill="#041E42"/>
<path d="M5.2118 6.80699H4.53264V6.12787C4.53264 5.86902 4.32277 5.65918 4.06389 5.65918C3.80502 5.65918 3.59514 5.86902 3.59514 6.12787V6.80699H2.91602C2.65714 6.80699 2.44727 7.01684 2.44727 7.27568C2.44727 7.53452 2.65714 7.74437 2.91602 7.74437H3.59517V8.42346C3.59517 8.68231 3.80505 8.89215 4.06392 8.89215C4.3228 8.89215 4.53267 8.68231 4.53267 8.42346V7.7444H5.21183C5.4707 7.7444 5.68058 7.53455 5.68058 7.27571C5.68055 7.01684 5.47067 6.80699 5.2118 6.80699Z" fill="#041E42"/>
<path d="M12.1048 5.49512C11.123 5.49512 10.3242 6.29384 10.3242 7.27562C10.3242 8.25737 11.123 9.05609 12.1048 9.05609C13.0867 9.05609 13.8855 8.25737 13.8855 7.27562C13.8854 6.2938 13.0867 5.49512 12.1048 5.49512ZM12.1048 8.11865C11.6399 8.11865 11.2617 7.74046 11.2617 7.27559C11.2617 6.81071 11.6399 6.43249 12.1048 6.43249C12.5697 6.43249 12.948 6.81071 12.948 7.27559C12.948 7.74046 12.5697 8.11865 12.1048 8.11865Z" fill="#041E42"/>
</svg>
