<svg width="16" height="16" viewBox="0 0 16 16" fill="none" xmlns="http://www.w3.org/2000/svg">
<g clip-path="url(#clip0_1_938)">
<path d="M4.71875 10.375V12.875C4.71875 13.1339 4.92862 13.3438 5.1875 13.3438H11.4375C11.6964 13.3438 11.9062 13.1339 11.9062 12.875V10.375C11.9062 10.1161 11.6964 9.90625 11.4375 9.90625H5.1875C4.92859 9.90625 4.71875 10.1161 4.71875 10.375ZM5.65625 10.8438H10.9688V12.4062H5.65625V10.8438Z" fill="#041E42"/>
<path d="M14.842 6.34306C14.8013 6.31269 14.7566 6.28966 14.7098 6.27406C14.7152 6.21428 14.718 6.15413 14.718 6.09375C14.718 5.70056 14.6027 5.32094 14.3945 4.99772C14.9708 4.636 15.343 3.99722 15.343 3.28125C15.343 2.16122 14.4317 1.25 13.3117 1.25C13.2077 1.25 13.1044 1.25813 13.0022 1.27425C12.7014 0.520406 11.969 0 11.1242 0C10.2903 0 9.56056 0.505437 9.25199 1.25H9.24924C8.16924 1.25 7.28371 2.09734 7.22177 3.16206C6.76024 3.23597 6.32199 3.41869 5.94384 3.69375L5.02927 2.10969C4.38312 0.990531 2.94687 0.605687 1.82765 1.25181C0.708459 1.898 0.323615 3.33422 0.969803 4.45344L2.00883 6.25313C1.92768 6.26234 1.84893 6.29262 1.78124 6.34316C1.64852 6.44225 1.57796 6.60403 1.59562 6.76869C1.75177 8.22619 1.91055 9.72403 2.06412 11.1726C2.19059 12.3656 2.31705 13.5585 2.44352 14.7432C2.52002 15.4597 3.12115 16 3.84184 16H12.7812C13.5021 16 14.1033 15.4594 14.1796 14.7425L15.0279 6.76834C15.0454 6.60369 14.9747 6.44206 14.842 6.34306ZM9.24924 2.1875C9.32384 2.1875 9.40171 2.19678 9.48734 2.21584C9.61212 2.24359 9.74293 2.21919 9.84937 2.14825C9.95578 2.07728 10.0286 1.96591 10.0508 1.83997C10.1433 1.31706 10.5948 0.9375 11.1242 0.9375C11.6782 0.9375 12.1422 1.35622 12.2036 1.9115C12.2201 2.06072 12.3071 2.19303 12.4375 2.26734C12.568 2.34166 12.7262 2.34897 12.8629 2.28703C13.0087 2.221 13.1597 2.1875 13.3117 2.1875C13.9148 2.1875 14.4055 2.67816 14.4055 3.28125C14.4055 3.81134 14.0253 4.26281 13.5015 4.35478C13.3149 4.38756 13.1663 4.5295 13.1251 4.71447C13.0838 4.89944 13.158 5.09103 13.3131 5.2C13.6057 5.40569 13.7805 5.73981 13.7805 6.09378C13.7805 6.25563 13.7433 6.41494 13.6727 6.56175C12.5982 6.95066 11.4929 7.21947 10.3663 7.36669C10.4325 7.22784 10.4876 7.08391 10.5315 6.93638C11.7342 5.16978 11.8973 3.39656 11.9038 3.321C11.9257 3.06306 11.7344 2.83616 11.4764 2.81422C11.2185 2.79272 10.9916 2.98363 10.9697 3.24159C10.9687 3.25294 10.8952 4.051 10.4741 5.07172C10.1095 4.08041 9.23021 3.33588 8.16193 3.16325C8.22102 2.61544 8.68603 2.1875 9.24924 2.1875ZM7.68674 4.0625C8.80678 4.0625 9.718 4.97372 9.718 6.09375C9.718 6.61509 9.52456 7.10022 9.17106 7.47666C8.88568 7.49203 8.59924 7.5 8.31174 7.5C8.25471 7.5 8.19774 7.49956 8.14077 7.49897L6.41649 4.51241C6.77521 4.22369 7.22331 4.0625 7.68674 4.0625ZM1.64121 2.91759C1.73843 2.55478 1.97112 2.25153 2.2964 2.06369C2.9679 1.67603 3.82965 1.90691 4.21737 2.57844L4.6194 3.27478L3.28393 3.35494C3.02549 3.37044 2.82859 3.5925 2.84409 3.85091C2.85902 4.09978 3.06549 4.29159 3.31155 4.29159C3.32102 4.29159 3.33052 4.29131 3.34009 4.29075L5.14346 4.18253L5.5569 4.89862L4.22143 4.97878C3.96302 4.99428 3.76612 5.21637 3.78162 5.47475C3.79655 5.72363 4.00305 5.91544 4.24909 5.91544C4.25855 5.91544 4.26805 5.91516 4.27762 5.91459L6.08096 5.80634L7.0289 7.44825C5.77481 7.34697 4.54409 7.09694 3.34943 6.70019L1.78171 3.98469C1.59387 3.65941 1.54399 3.28044 1.64121 2.91759ZM13.2473 14.6433C13.2219 14.8823 13.0215 15.0625 12.7812 15.0625H3.84184C3.60159 15.0625 3.40121 14.8824 3.37571 14.6437C3.24927 13.4592 3.12284 12.2665 2.9964 11.0738C2.86962 9.87784 2.73927 8.64828 2.60977 7.43547C4.43987 8.10072 6.35434 8.4375 8.31174 8.4375C10.2694 8.4375 12.1838 8.10072 14.0141 7.43528L13.2473 14.6433Z" fill="#041E42"/>
</g>
<defs>
<clipPath id="clip0_1_938">
<rect width="16" height="16" fill="white"/>
</clipPath>
</defs>
</svg>
