<svg width="34" height="34" viewBox="0 0 34 34" fill="none" xmlns="http://www.w3.org/2000/svg">
<circle cx="17" cy="17" r="17" fill="white"/>
<path d="M23.5625 21.6243H23.2818V11.9414C23.2818 11.6998 23.0859 11.5039 22.8443 11.5039H20.1757C19.9341 11.5039 19.7382 11.6998 19.7382 11.9414V21.6243H18.7719V13.983C18.7719 13.7414 18.576 13.5455 18.3344 13.5455H15.6658C15.4242 13.5455 15.2283 13.7414 15.2283 13.983V21.6243H14.262V16.0247C14.262 15.7831 14.0661 15.5872 13.8245 15.5872H11.1559C10.9143 15.5872 10.7184 15.7831 10.7184 16.0247V21.6243H10.4375C10.1959 21.6243 10 21.8202 10 22.0618C10 22.3034 10.1959 22.4993 10.4375 22.4993H23.5625C23.8041 22.4993 24 22.3034 24 22.0618C24 21.8202 23.8041 21.6243 23.5625 21.6243ZM20.6131 12.3789H22.4067V21.6243H20.6131V12.3789ZM16.1033 21.6243V14.4205H17.8969V21.6243H16.1033ZM11.5934 16.4622H13.387V21.6243H11.5934V16.4622Z" fill="#041E42"/>
</svg>
