<svg width="34" height="34" viewBox="0 0 34 34" fill="none" xmlns="http://www.w3.org/2000/svg">
<circle cx="17" cy="17" r="17" fill="white"/>
<path fill-rule="evenodd" clip-rule="evenodd" d="M17.0025 15.4263C16.1146 15.4263 15.3945 16.1459 15.3945 17.0343C15.3945 17.9221 16.1146 18.6423 17.0025 18.6423C17.8904 18.6423 18.6105 17.9221 18.6105 17.0343C18.6105 16.1459 17.8905 15.4263 17.0025 15.4263ZM14.3945 17.0343C14.3945 15.5934 15.5625 14.4263 17.0025 14.4263C18.4426 14.4263 19.6105 15.5934 19.6105 17.0343C19.6105 18.4744 18.4426 19.6423 17.0025 19.6423C15.5624 19.6423 14.3945 18.4744 14.3945 17.0343Z" fill="#041E42"/>
<path fill-rule="evenodd" clip-rule="evenodd" d="M12.3177 13.3987C13.5139 12.3873 15.1678 11.6665 17.002 11.6665C18.8358 11.6665 20.4896 12.3867 21.686 13.3979C22.8694 14.398 23.67 15.7425 23.67 17.0345C23.67 18.3265 22.8694 19.671 21.686 20.6712C20.4896 21.6823 18.8358 22.4025 17.002 22.4025C15.1678 22.4025 13.5139 21.6817 12.3177 20.6703C11.1345 19.67 10.334 18.3255 10.334 17.0345C10.334 15.7435 11.1345 14.399 12.3177 13.3987ZM12.9633 14.1623C11.9142 15.0493 11.334 16.1388 11.334 17.0345C11.334 17.9302 11.9142 19.0197 12.9633 19.9067C13.9994 20.7826 15.4295 21.4025 17.002 21.4025C18.5742 21.4025 20.0044 20.783 21.0405 19.9074C22.0896 19.0207 22.67 17.9312 22.67 17.0345C22.67 16.1378 22.0896 15.0483 21.0405 14.1616C20.0044 13.2859 18.5742 12.6665 17.002 12.6665C15.4295 12.6665 13.9994 13.2864 12.9633 14.1623Z" fill="#041E42"/>
</svg>
