<svg width="16" height="16" viewBox="0 0 16 16" fill="none" xmlns="http://www.w3.org/2000/svg">
<path d="M10.6354 2.58496C12.522 2.58496 14.051 4.13747 14.051 6.31099C14.051 10.658 9.39345 13.1421 7.84094 14.0736C6.2884 13.1421 1.63086 10.658 1.63086 6.31099C1.63086 4.13747 3.18337 2.58496 5.04638 2.58496C6.20145 2.58496 7.2199 3.20597 7.84094 3.82697C8.46188 3.20597 9.48036 2.58496 10.6354 2.58496ZM8.42094 12.2751C8.96799 11.9299 9.46174 11.5865 9.92377 11.2188C11.775 9.74703 12.8089 8.1386 12.8089 6.31099C12.8089 4.84542 11.8545 3.82697 10.6354 3.82697C9.96719 3.82697 9.24436 4.18094 8.71897 4.70507L7.84094 5.58317L6.9628 4.70507C6.43744 4.18094 5.71459 3.82697 5.04638 3.82697C3.84163 3.82697 2.87287 4.85536 2.87287 6.31099C2.87287 8.13925 3.90746 9.74703 5.75744 11.2188C6.22008 11.5865 6.71378 11.9299 7.26089 12.2745C7.44654 12.3919 7.63039 12.5043 7.84094 12.6297C8.05141 12.5043 8.23527 12.3919 8.42094 12.2751Z" fill="#041E42"/>
</svg>
