<svg width="16" height="16" viewBox="0 0 16 16" fill="none" xmlns="http://www.w3.org/2000/svg">
<path d="M15.5312 7.53125H14.9007C15.1905 6.95528 15.3438 6.31534 15.3438 5.65181C15.3438 4.53318 14.9081 3.48149 14.1172 2.69049C13.3262 1.89949 12.2745 1.46387 11.1558 1.46387C10.0372 1.46387 8.98553 1.89949 8.19453 2.69049L8 2.88502L7.80547 2.69052C7.01447 1.89952 5.96281 1.4639 4.84416 1.4639C3.7255 1.4639 2.67384 1.89952 1.88284 2.69049C1.09187 3.48149 0.65625 4.53318 0.65625 5.65181C0.65625 6.31531 0.809531 6.95528 1.09931 7.53125H0.46875C0.209875 7.53125 0 7.74112 0 8C0 8.25887 0.209875 8.46875 0.46875 8.46875H1.74519C1.78984 8.51775 1.83569 8.56593 1.88287 8.61312L7.66856 14.3988C7.76009 14.4903 7.88006 14.5361 8 14.5361C8.11994 14.5361 8.23994 14.4904 8.33144 14.3988L14.1171 8.61312C14.1643 8.56593 14.2102 8.51775 14.2548 8.46875H15.5312C15.7901 8.46875 16 8.25887 16 8C16 7.74112 15.7901 7.53125 15.5312 7.53125ZM1.59375 5.65181C1.59375 4.78359 1.93184 3.96734 2.54578 3.3534C3.15969 2.73946 3.97594 2.40137 4.84416 2.40137C5.71238 2.40137 6.52863 2.73946 7.14256 3.3534L7.66853 3.87937C7.85156 4.06243 8.14837 4.06243 8.33144 3.87937L8.85741 3.3534C9.47134 2.73946 10.2876 2.40137 11.1558 2.40137C12.024 2.40137 12.8403 2.73946 13.4542 3.3534C14.0682 3.96734 14.4062 4.78359 14.4062 5.65181C14.4062 6.33487 14.1968 6.98571 13.8086 7.53125H11.3517L10.3022 5.87418C10.2143 5.73534 10.0602 5.6529 9.89581 5.65637C9.73153 5.66003 9.58116 5.74943 9.49947 5.89206L7.96275 8.57522L5.98063 4.66315C5.89806 4.50018 5.72769 4.39978 5.54578 4.40656C5.36322 4.41306 5.20106 4.52506 5.13031 4.69349L3.93847 7.53125H2.19138C1.80316 6.98571 1.59375 6.3349 1.59375 5.65181ZM8 13.4044L3.06431 8.46875H4.25C4.43875 8.46875 4.60909 8.35553 4.68219 8.18153L5.60231 5.99074L7.51937 9.77437C7.59725 9.92812 7.75322 10.0267 7.92553 10.0311C7.92956 10.0312 7.93356 10.0313 7.93756 10.0313C8.10525 10.0313 8.26062 9.94153 8.34428 9.7955L9.92644 7.033L10.6978 8.25087C10.7837 8.3865 10.9331 8.46875 11.0938 8.46875H12.9357L8 13.4044Z" fill="#041E42"/>
</svg>
