<svg width="22" height="22" viewBox="0 0 22 22" fill="none" xmlns="http://www.w3.org/2000/svg">
<path d="M14.6234 3.55396C17.2175 3.55396 19.3198 5.68866 19.3198 8.67726C19.3198 14.6544 12.9157 18.07 10.781 19.3508C8.6463 18.07 2.24219 14.6544 2.24219 8.67726C2.24219 5.68866 4.3769 3.55396 6.93853 3.55396C8.52675 3.55396 9.92712 4.40784 10.781 5.26172C11.6348 4.40784 13.0352 3.55396 14.6234 3.55396ZM11.5785 16.8779C12.3307 16.4032 13.0096 15.931 13.6449 15.4255C16.1903 13.4018 17.612 11.1902 17.612 8.67726C17.612 6.66209 16.2996 5.26172 14.6234 5.26172C13.7046 5.26172 12.7107 5.74843 11.9883 6.46911L10.781 7.6765L9.57361 6.46911C8.85123 5.74843 7.85731 5.26172 6.93853 5.26172C5.282 5.26172 3.94996 6.67575 3.94996 8.67726C3.94996 11.1911 5.37251 13.4018 7.91623 15.4255C8.55237 15.931 9.23121 16.4032 9.98348 16.8771C10.2387 17.0385 10.4915 17.193 10.781 17.3655C11.0704 17.193 11.3232 17.0385 11.5785 16.8779Z" fill="#041E42"/>
</svg>
