<svg width="20" height="21" viewBox="0 0 20 21" fill="none" xmlns="http://www.w3.org/2000/svg">
<circle cx="10" cy="10.0996" r="10" fill="white"/>
<g clip-path="url(#clip0_1_1369)">
<path d="M16.8936 8.5312C16.6882 8.39331 16.5027 8.22791 16.3423 8.03957C16.3542 7.77735 16.4069 7.51859 16.4985 7.27264C16.6707 6.68965 16.8852 5.96409 16.4719 5.39635C16.0555 4.82409 15.295 4.80488 14.6839 4.78926C14.4269 4.79952 14.1698 4.77188 13.9208 4.70722C13.7839 4.49247 13.6793 4.25876 13.6106 4.01354C13.4067 3.43291 13.1527 2.71024 12.4725 2.4892C11.8125 2.27469 11.2202 2.68224 10.6979 3.04062C10.4881 3.2082 10.2524 3.34066 10.0002 3.43289C9.74781 3.34076 9.51204 3.20828 9.30213 3.04062C8.77984 2.68192 8.18737 2.27567 7.52753 2.4892C6.84754 2.71024 6.59364 3.43255 6.38952 4.01331C6.32087 4.25729 6.21748 4.49014 6.08256 4.7047C5.83278 4.77133 5.57436 4.79976 5.31608 4.78902C4.70508 4.80461 3.94451 4.82385 3.52818 5.39608C3.11483 5.96414 3.32929 6.6897 3.50151 7.27275C3.59206 7.51741 3.64523 7.7743 3.65922 8.03482C3.49954 8.22581 3.31336 8.39299 3.10633 8.53123C2.61333 8.90719 2 9.37526 2 10.0996C2 10.8239 2.61333 11.2919 3.10644 11.6679C3.31181 11.8058 3.49731 11.9712 3.6577 12.1595C3.64578 12.4218 3.59308 12.6805 3.50146 12.9265C3.32926 13.5095 3.11478 14.2351 3.52812 14.8028C3.94446 15.375 4.70503 15.3942 5.31605 15.4099C5.5731 15.3996 5.83023 15.4273 6.07922 15.4919C6.21612 15.7067 6.32066 15.9404 6.38945 16.1856C6.59356 16.7663 6.84746 17.4889 7.52761 17.71C7.64811 17.7495 7.77414 17.7696 7.90096 17.7696C8.41285 17.7696 8.88028 17.4483 9.30218 17.1586C9.51207 16.991 9.7477 16.8585 9.99997 16.7662C10.2524 16.8583 10.4881 16.9908 10.6981 17.1585C11.2203 17.5172 11.8127 17.9231 12.4727 17.7099C13.1526 17.4889 13.4065 16.7666 13.6107 16.1858C13.6793 15.9418 13.7827 15.709 13.9176 15.4944C14.1674 15.4278 14.4258 15.3994 14.6841 15.4101C15.2951 15.3945 16.0557 15.3753 16.472 14.803C16.8853 14.235 16.6709 13.5094 16.4987 12.9264C16.4081 12.6817 16.355 12.4248 16.341 12.1643C16.5006 11.9733 16.6868 11.8061 16.8939 11.6679C17.3866 11.2919 18 10.8239 18 10.0996C18 9.37526 17.3867 8.90719 16.8936 8.5312ZM12.9714 8.90425L9.63802 12.2376C9.37777 12.4979 8.95577 12.498 8.69544 12.2377C8.69538 12.2377 8.69533 12.2376 8.69528 12.2376L7.0286 10.5709C6.76497 10.3139 6.75961 9.8918 7.01664 9.62816C7.27366 9.36452 7.69574 9.35917 7.95938 9.61619C7.96342 9.62013 7.96741 9.62412 7.97135 9.62816L9.16665 10.8235L12.0286 7.96149C12.2857 7.69785 12.7077 7.69252 12.9714 7.94954C13.235 8.20657 13.2403 8.62865 12.9833 8.89229C12.9794 8.89635 12.9754 8.90032 12.9714 8.90425Z" fill="#443297"/>
</g>
<defs>
<clipPath id="clip0_1_1369">
<rect width="16" height="16" fill="white" transform="translate(2 2.09961)"/>
</clipPath>
</defs>
</svg>
