<svg width="211" height="26" viewBox="0 0 211 26" fill="none" xmlns="http://www.w3.org/2000/svg">
<circle cx="13" cy="13" r="13" fill="#041E42"/>
<g clip-path="url(#clip0_1_1668)">
<path d="M16.8141 10.3079C16.5666 10.06 16.1647 10.0602 15.9168 10.3079L11.8783 14.3466L10.0834 12.5516C9.8355 12.3038 9.43374 12.3038 9.18589 12.5516C8.93804 12.7995 8.93804 13.2013 9.18589 13.4491L11.4295 15.6927C11.5533 15.8165 11.7157 15.8786 11.8781 15.8786C12.0405 15.8786 12.2031 15.8167 12.3269 15.6927L16.8141 11.2053C17.062 10.9577 17.062 10.5557 16.8141 10.3079Z" fill="white"/>
</g>
<circle cx="50" cy="13" r="13" fill="#443297"/>
<circle cx="87" cy="13" r="13" fill="#4A70B1"/>
<circle cx="124" cy="13" r="13" fill="#F5C34B"/>
<circle cx="161" cy="13" r="13" fill="#626974"/>
<circle cx="198" cy="13" r="12.5" fill="white" stroke="#EAEAEA"/>
<defs>
<clipPath id="clip0_1_1668">
<rect width="8" height="8" fill="white" transform="translate(9 9)"/>
</clipPath>
</defs>
</svg>
