<svg width="30" height="31" viewBox="0 0 30 31" fill="none" xmlns="http://www.w3.org/2000/svg">
<g clip-path="url(#clip0_12_584)">
<path d="M25.8378 23.6608L21.2943 20.6751C20.2128 19.9644 18.8089 20.0262 17.8004 20.8284C16.9174 21.5313 15.6496 21.4594 14.8517 20.6613L10.2384 16.0482C9.4405 15.2501 9.36863 13.9823 10.0713 13.0993C10.8738 12.0908 10.9353 10.6869 10.2246 9.60542L7.23888 5.06189C6.7168 4.26744 5.90702 3.79205 4.95853 3.72316C4.01005 3.65495 3.14053 4.00812 2.50927 4.71902C-0.988045 8.65716 -0.808831 14.6605 2.91714 18.3862L12.5135 27.9828C14.4521 29.9214 17.0071 30.8997 19.5674 30.8997C21.9274 30.8997 24.292 30.0681 26.1809 28.3907C26.8918 27.7592 27.2454 26.8894 27.1766 25.9412C27.1079 24.9929 26.6325 24.1831 25.8378 23.6608ZM25.0138 27.0764C21.7704 29.9569 16.8254 29.809 13.7563 26.74L4.15974 17.1436C1.09089 14.0746 0.943031 9.12957 3.82328 5.88586C4.06727 5.6112 4.37122 5.47227 4.72782 5.47227C4.76192 5.47227 4.79649 5.47365 4.8315 5.47616C5.23319 5.50523 5.54882 5.69063 5.77015 6.02708L8.75591 10.5706C9.053 11.0229 9.02965 11.5859 8.69594 12.005C7.43641 13.588 7.56527 15.8605 8.99555 17.291L13.6089 21.9042C15.0392 23.3347 17.3117 23.4635 18.8947 22.2038C19.3138 21.8703 19.8768 21.8467 20.3291 22.144L24.8726 25.1296H24.8724C25.2091 25.3509 25.3945 25.6665 25.4235 26.0682C25.4526 26.4699 25.3148 26.8091 25.0138 27.0764Z" fill="#041E42"/>
<path d="M29.7427 1.15739C29.5779 0.992599 29.3545 0.899902 29.1215 0.899902H23.8194C23.334 0.899902 22.9405 1.29335 22.9405 1.77881C22.9405 2.26404 23.334 2.65749 23.8194 2.65749H27.0036L17.1922 12.4944C16.8493 12.8379 16.8502 13.3943 17.1938 13.7372C17.3652 13.9082 17.5897 13.9938 17.8143 13.9938C18.0395 13.9938 18.2649 13.9077 18.4366 13.7356L28.2426 3.90421L28.2424 7.0804C28.2424 7.56586 28.6358 7.9593 29.121 7.9593H29.1213C29.6065 7.9593 29.9999 7.56586 29.9999 7.0804L30.0002 1.77858C30.0002 1.54581 29.9077 1.32219 29.7427 1.15739Z" fill="#041E42"/>
</g>
<defs>
<clipPath id="clip0_12_584">
<rect width="30" height="30" fill="white" transform="translate(0 0.899902)"/>
</clipPath>
</defs>
</svg>
