<svg width="16" height="16" viewBox="0 0 16 16" fill="none" xmlns="http://www.w3.org/2000/svg">
<path fill-rule="evenodd" clip-rule="evenodd" d="M6.45683 2.36696C6.05093 1.83257 5.31148 1.61115 4.67346 1.9379C4.35973 2.09857 3.97929 2.31278 3.63697 2.56095C2.23838 3.57483 2.13538 5.4877 3.06766 6.81815C3.69122 7.708 4.59744 8.83965 5.87838 10.1206C7.15918 11.4014 8.29073 12.3076 9.18053 12.9311C10.512 13.8642 12.4233 13.7618 13.438 12.362C13.6918 12.0118 13.9059 11.6328 14.0655 11.321C14.3914 10.6839 14.1674 9.9488 13.6365 9.54555L12.4895 8.6744C11.763 8.12265 10.7407 8.1922 10.0957 8.8372C10.0323 8.9006 9.92958 8.9006 9.86618 8.8372L7.16173 6.13275C7.09833 6.0694 7.09833 5.9666 7.16173 5.90325C7.80673 5.2582 7.87628 4.23589 7.32453 3.50945L6.45683 2.36696ZM5.12928 2.82797C5.29583 2.74267 5.51963 2.78633 5.66048 2.97179L6.52818 4.11428C6.77753 4.44259 6.74613 4.90461 6.45463 5.1961C6.00068 5.65005 6.00068 6.38595 6.45463 6.83985L9.15908 9.54435C9.61298 9.99825 10.3489 9.99825 10.8028 9.54435C11.0943 9.2528 11.5563 9.2214 11.8846 9.47075L13.0317 10.3419C13.2163 10.4822 13.2586 10.7026 13.1753 10.8655C13.029 11.1513 12.8413 11.4813 12.6283 11.7751C11.9929 12.6517 10.7255 12.7927 9.75443 12.1122C8.91143 11.5215 7.82458 10.6526 6.58548 9.41345C5.34623 8.17425 4.47734 7.0873 3.88661 6.2443C3.20699 5.2744 3.34835 4.0053 4.2239 3.37058C4.5086 3.16419 4.83936 2.97646 5.12928 2.82797Z" fill="#041E42"/>
<path d="M10.0823 2.00681C9.80988 1.96141 9.55228 2.14542 9.50688 2.4178C9.46148 2.69019 9.64548 2.9478 9.91788 2.9932L10.0996 3.02349C11.5748 3.26935 12.7307 4.42531 12.9766 5.90045L13.0069 6.0822C13.0523 6.3546 13.3099 6.5386 13.5823 6.4932C13.8547 6.4478 14.0387 6.1902 13.9933 5.9178L13.963 5.73605C13.6469 3.83944 12.1606 2.3532 10.264 2.03709L10.0823 2.00681Z" fill="#041E42"/>
<path d="M9.57075 4.00503C9.2974 3.96598 9.04415 4.15592 9.0051 4.42929C8.966 4.70266 9.15595 4.95592 9.42935 4.99498L9.6944 5.03285C10.3544 5.1271 10.873 5.64565 10.9672 6.30565L11.0051 6.5707C11.0442 6.8441 11.2974 7.03405 11.5708 6.99495C11.8442 6.9559 12.0341 6.70265 11.9951 6.4293L11.9572 6.1642C11.8 5.06425 10.9358 4.20003 9.83585 4.0429L9.57075 4.00503Z" fill="#041E42"/>
</svg>
