<svg width="16" height="16" viewBox="0 0 16 16" fill="none" xmlns="http://www.w3.org/2000/svg">
<path fill-rule="evenodd" clip-rule="evenodd" d="M4.13774 6.21798C4.13774 4.88775 4.59505 3.90023 5.29776 3.24308C6.00557 2.58116 7.00175 2.21798 8.13775 2.21798C9.2726 2.21798 10.269 2.58412 10.9773 3.24817C11.6808 3.90763 12.1378 4.89563 12.1378 6.21798C12.1378 8.15047 11.0919 10.1274 9.988 11.6633C9.44227 12.4225 8.89564 13.0558 8.48547 13.499C8.35363 13.6414 8.23619 13.764 8.13775 13.8645C8.03926 13.764 7.92182 13.6414 7.79004 13.499C7.37987 13.0558 6.83324 12.4225 6.2875 11.6633C5.18351 10.1274 4.13774 8.15047 4.13774 6.21798ZM7.81155 14.8901C7.81161 14.8902 7.81174 14.8903 8.13775 14.538L7.81174 14.8903C7.99574 15.0606 8.27977 15.0606 8.46371 14.8903L8.13775 14.538C8.46371 14.8903 8.46383 14.8902 8.46396 14.8901L8.46428 14.8898L8.46524 14.8889L8.46838 14.886L8.47939 14.8757C8.48886 14.8668 8.50243 14.854 8.51983 14.8373C8.55465 14.804 8.60483 14.7554 8.66825 14.6925C8.7951 14.5667 8.97488 14.3836 9.19004 14.151C9.61987 13.6866 10.1932 13.0225 10.7675 12.2236C11.9035 10.6431 13.0978 8.46017 13.0978 6.21798C13.0978 4.66034 12.5518 3.40834 11.6339 2.54779C10.7208 1.69185 9.47715 1.25798 8.13775 1.25798C6.79951 1.25798 5.55567 1.6875 4.64204 2.54192C3.72329 3.40111 3.17773 4.65359 3.17773 6.21798C3.17773 8.46017 4.37196 10.6431 5.50798 12.2236C6.08224 13.0225 6.65564 13.6866 7.08546 14.151C7.30057 14.3836 7.48041 14.5667 7.60719 14.6925C7.67062 14.7554 7.72086 14.804 7.75567 14.8373C7.77308 14.854 7.78665 14.8668 7.79606 14.8757L7.80707 14.886L7.8102 14.8889L7.81116 14.8898L7.81155 14.8901ZM6.69775 6.21798C6.69775 5.42269 7.34243 4.77798 8.13775 4.77798C8.93302 4.77798 9.57776 5.42269 9.57776 6.21798C9.57776 7.01325 8.93302 7.65799 8.13775 7.65799C7.34243 7.65799 6.69775 7.01325 6.69775 6.21798ZM8.13775 3.81798C6.81225 3.81798 5.73774 4.8925 5.73774 6.21798C5.73774 7.54349 6.81225 8.61799 8.13775 8.61799C9.4632 8.61799 10.5378 7.54349 10.5378 6.21798C10.5378 4.8925 9.4632 3.81798 8.13775 3.81798Z" fill="black"/>
</svg>
