<svg width="16" height="16" viewBox="0 0 16 16" fill="none" xmlns="http://www.w3.org/2000/svg">
<g clip-path="url(#clip0_1_1700)">
<path d="M15.937 14.4892L14.8386 11.2926C15.367 10.2246 15.6464 9.03431 15.6482 7.83656C15.6514 5.774 14.8534 3.82372 13.4011 2.3451C11.9486 0.866197 10.013 0.0337616 7.95094 0.0010429C6.8706 -0.0163008 5.82229 0.182761 4.83354 0.592042C3.87988 0.986822 3.02467 1.55867 2.29167 2.29166C1.55864 3.02466 0.986795 3.87988 0.592045 4.83353C0.182765 5.82228 -0.0160785 6.87112 0.0010152 7.95093C0.0336714 10.013 0.866139 11.9486 2.34504 13.4011C3.82079 14.8506 5.76604 15.6484 7.82416 15.6483C7.82819 15.6483 7.83244 15.6483 7.83647 15.6483C9.03422 15.6465 10.2246 15.367 11.2925 14.8387L14.4892 15.9371C14.6121 15.9794 14.7381 16 14.8627 16C15.1588 16 15.4468 15.8837 15.6652 15.6652C15.9755 15.355 16.0797 14.9043 15.937 14.4892ZM14.9944 14.9945C14.9629 15.026 14.8955 15.0737 14.7974 15.04L11.4101 13.8761C11.36 13.8589 11.3079 13.8503 11.256 13.8503C11.1794 13.8503 11.1032 13.8689 11.0342 13.9054C10.0552 14.4233 8.94894 14.698 7.83497 14.6997C4.09904 14.7057 1.00867 11.6712 0.949482 7.9359C0.919701 6.05656 1.63457 4.29028 2.96242 2.96244C4.29026 1.63463 6.056 0.919885 7.93587 0.949604C11.6712 1.00882 14.7054 4.09766 14.6996 7.83509C14.6978 8.94909 14.4232 10.0553 13.9053 11.0342C13.844 11.1501 13.8334 11.2862 13.876 11.4102L15.0399 14.7975C15.0736 14.8956 15.0259 14.963 14.9944 14.9945Z" fill="#041E42"/>
<path d="M7.74717 11.3359C7.49908 11.3359 7.26139 11.5541 7.27286 11.8102C7.28436 12.0672 7.48127 12.2846 7.74717 12.2846C7.99527 12.2846 8.23295 12.0664 8.22148 11.8102C8.20998 11.5532 8.01308 11.3359 7.74717 11.3359Z" fill="#041E42"/>
<path d="M7.74753 3.99023C6.44632 3.99023 5.3877 5.04886 5.3877 6.35007C5.3877 6.61201 5.60007 6.82439 5.86201 6.82439C6.12394 6.82439 6.33632 6.61201 6.33632 6.35007C6.33632 5.57195 6.96941 4.93886 7.74753 4.93886C8.52566 4.93886 9.15875 5.57195 9.15875 6.35007C9.15875 7.1282 8.52566 7.76129 7.74753 7.76129C7.4856 7.76129 7.27322 7.97366 7.27322 8.2356V10.1701C7.27322 10.4321 7.4856 10.6444 7.74753 10.6444C8.00947 10.6444 8.22185 10.4321 8.22185 10.1701V8.66201C9.2965 8.44185 10.1074 7.48888 10.1074 6.35007C10.1074 5.04886 9.04875 3.99023 7.74753 3.99023Z" fill="#041E42"/>
</g>
<defs>
<clipPath id="clip0_1_1700">
<rect width="16" height="16" fill="white"/>
</clipPath>
</defs>
</svg>
