<svg width="16" height="16" viewBox="0 0 16 16" fill="none" xmlns="http://www.w3.org/2000/svg">
<path d="M11.1406 0H4.85937C3.86859 0 3.0625 0.806061 3.0625 1.79687V14.2031C3.0625 15.1939 3.86856 16 4.85937 16H11.1406C12.1314 16 12.9375 15.1939 12.9375 14.2031V1.79687C12.9375 0.806061 12.1314 0 11.1406 0ZM4.85937 0.937498H11.1406C11.6145 0.937498 12 1.32303 12 1.79687V12.3437H4V1.79687C4 1.32303 4.38553 0.937498 4.85937 0.937498ZM11.1406 15.0625H4.85937C4.3855 15.0625 4 14.677 4 14.2031V13.2812H12V14.2031C12 14.677 11.6145 15.0625 11.1406 15.0625Z" fill="#19B269"/>
<path d="M8 13.6562C7.74112 13.6562 7.53125 13.8661 7.53125 14.125V14.1875C7.53125 14.4464 7.74112 14.6562 8 14.6562C8.25888 14.6562 8.46875 14.4464 8.46875 14.1875V14.125C8.46875 13.8661 8.25891 13.6562 8 13.6562Z" fill="#60C260"/>
</svg>
