<svg width="10" height="11" viewBox="0 0 10 11" fill="none" xmlns="http://www.w3.org/2000/svg">
<g clip-path="url(#clip0_1_3393)">
<path d="M9.4718 4.86813L9.47165 4.86812L6.58494 4.60604L6.28818 4.5791L6.17114 4.30507L5.03065 1.63495C5.03063 1.63491 5.03061 1.63486 5.03059 1.63481C5.02476 1.62138 5.01307 1.61427 5.00001 1.61427C4.98662 1.61427 4.97554 1.62159 4.97029 1.6339L4.97019 1.63414L3.82934 4.30507L3.7123 4.57911L3.41554 4.60604L0.529118 4.86805C0.529072 4.86805 0.529026 4.86806 0.52898 4.86806C0.516448 4.86927 0.505206 4.87753 0.50058 4.89097C0.496573 4.90398 0.50063 4.91744 0.510216 4.92588L9.4718 4.86813ZM9.4718 4.86813C9.48411 4.86924 9.49489 4.87736 9.49918 4.89013C9.50362 4.90381 9.49955 4.91724 9.48981 4.92588C9.48977 4.92591 9.48973 4.92595 9.48969 4.92598L7.30769 6.83928L7.08426 7.0352L7.15005 7.32499L7.79333 10.1582C7.79334 10.1583 7.79336 10.1583 7.79337 10.1584C7.79659 10.1729 7.79101 10.1854 7.78107 10.1926L7.78064 10.1929C7.76985 10.2007 7.75611 10.2013 7.74475 10.1945L5.25614 8.70625L5.00004 8.55309L4.74392 8.70623L2.25471 10.1946L2.25457 10.1947C2.24926 10.1979 2.24384 10.1993 2.23828 10.1993C2.23141 10.1993 2.22546 10.1973 2.21995 10.1933L2.21896 10.1926C2.20901 10.1854 2.20342 10.1729 2.20667 10.1583C2.20668 10.1583 2.20669 10.1583 2.20669 10.1582L2.84997 7.32499L2.91577 7.0352L2.69234 6.83928L0.510252 4.92591L9.4718 4.86813Z" fill="white" stroke="#041E42" stroke-width="0.998064"/>
</g>
<defs>
<clipPath id="clip0_1_3393">
<rect width="10" height="10" fill="white" transform="translate(0 0.900391)"/>
</clipPath>
</defs>
</svg>
