<svg width="15" height="15" viewBox="0 0 15 15" fill="none" xmlns="http://www.w3.org/2000/svg">
<g clip-path="url(#clip0_1_1307)">
<path d="M13.8353 5.55548L13.8355 5.55549C13.9382 5.56479 14.0257 5.6342 14.058 5.73357L14.5335 5.57895L14.0579 5.73325C14.0905 5.8336 14.0604 5.94167 13.9823 6.01021L10.8651 8.74354L10.6412 8.93984L10.7071 9.23019L11.6262 13.2779C11.6495 13.3814 11.6094 13.4859 11.5257 13.5465L11.5253 13.5468C11.4409 13.6079 11.3291 13.6128 11.2399 13.5594L7.68466 11.4333L7.42806 11.2798L7.17144 11.4333L3.61543 13.5595L3.61529 13.5596C3.57407 13.5842 3.52844 13.5963 3.4827 13.5963C3.42907 13.5963 3.37653 13.58 3.33137 13.5472L3.33038 13.5465C3.24666 13.486 3.20656 13.3815 3.22987 13.278C3.22988 13.278 3.2299 13.2779 3.22991 13.2779L4.14893 9.23019L4.21485 8.93984L3.99098 8.74354L0.873707 6.01013C0.873695 6.01012 0.873683 6.01011 0.873671 6.0101C0.795786 5.94177 0.765766 5.83354 0.797871 5.7341C0.830759 5.63444 0.918387 5.56507 1.02112 5.55544C1.02124 5.55543 1.02136 5.55542 1.02148 5.55541L5.14525 5.18109L5.44258 5.1541L5.55986 4.87954L7.18963 1.06391L7.18974 1.06367C7.2307 0.967625 7.3236 0.90625 7.42803 0.90625C7.53211 0.90625 7.62557 0.967387 7.66736 1.06455C7.66738 1.06461 7.66741 1.06467 7.66744 1.06473L9.29686 4.87954L9.41413 5.15409L9.71146 5.18109L13.8353 5.55548Z" fill="white" stroke="#F5C34B"/>
</g>
<defs>
<clipPath id="clip0_1_1307">
<rect width="14.2857" height="14.2857" fill="white" transform="translate(0.285156 0.0996094)"/>
</clipPath>
</defs>
</svg>
