<svg width="18" height="18" viewBox="0 0 18 18" fill="none" xmlns="http://www.w3.org/2000/svg">
<g clip-path="url(#clip0_1_1551)">
<path d="M17.098 6.67501C16.9852 6.32789 16.6773 6.08213 16.3145 6.04931L11.3658 5.60004L9.41009 1.02128C9.26569 0.684888 8.93714 0.467773 8.57145 0.467773C8.20576 0.467773 7.87708 0.684888 7.7336 1.02128L5.77787 5.60004L0.828446 6.04931C0.465629 6.08279 0.158399 6.32855 0.044872 6.67501C-0.0680014 7.02213 0.0362397 7.40287 0.310641 7.64353L4.05142 10.9236L2.94845 15.7815C2.86775 16.1387 3.00639 16.5081 3.30276 16.7223C3.46207 16.838 3.64923 16.8959 3.83705 16.8959C3.99845 16.8959 4.15997 16.853 4.30424 16.7666L8.57145 14.2151L12.8379 16.7666C13.1509 16.9537 13.5444 16.9365 13.8401 16.7223C14.1365 16.5081 14.2752 16.1387 14.1945 15.7815L13.0915 10.9236L16.8323 7.64353C17.1065 7.40287 17.2109 7.02292 17.098 6.67501Z" fill="#F5C34B"/>
</g>
<defs>
<clipPath id="clip0_1_1551">
<rect width="17.1429" height="17.1429" fill="white" transform="translate(0 0.0996094)"/>
</clipPath>
</defs>
</svg>
