<svg width="18" height="18" viewBox="0 0 18 18" fill="none" xmlns="http://www.w3.org/2000/svg">
<g clip-path="url(#clip0_1_1553)">
<path d="M17.8129 6.67501C17.7 6.32789 17.3921 6.08213 17.0293 6.04931L12.0807 5.60004L10.1249 1.02128C9.98054 0.684888 9.65199 0.467773 9.28629 0.467773C8.9206 0.467773 8.59192 0.684888 8.44844 1.02128L6.49271 5.60004L1.54329 6.04931C1.18047 6.08279 0.873243 6.32855 0.759716 6.67501C0.646842 7.02213 0.751083 7.40287 1.02548 7.64353L4.76626 10.9236L3.66329 15.7815C3.5826 16.1387 3.72123 16.5081 4.01761 16.7223C4.17691 16.838 4.36408 16.8959 4.55189 16.8959C4.71329 16.8959 4.87482 16.853 5.01908 16.7666L9.28629 14.2151L13.5527 16.7666C13.8657 16.9537 14.2593 16.9365 14.555 16.7223C14.8514 16.5081 14.99 16.1387 14.9093 15.7815L13.8063 10.9236L17.5471 7.64353C17.8214 7.40287 17.9257 7.02292 17.8129 6.67501Z" fill="#F5C34B"/>
</g>
<defs>
<clipPath id="clip0_1_1553">
<rect width="17.1429" height="17.1429" fill="white" transform="translate(0.714844 0.0996094)"/>
</clipPath>
</defs>
</svg>
