<svg width="18" height="18" viewBox="0 0 18 18" fill="none" xmlns="http://www.w3.org/2000/svg">
<g clip-path="url(#clip0_1_1557)">
<path d="M17.2406 6.67501C17.1277 6.32789 16.8199 6.08213 16.457 6.04931L11.5084 5.60004L9.55267 1.02128C9.40827 0.684888 9.07972 0.467773 8.71403 0.467773C8.34834 0.467773 8.01966 0.684888 7.87618 1.02128L5.92045 5.60004L0.971024 6.04931C0.608207 6.08279 0.300977 6.32855 0.18745 6.67501C0.0745768 7.02213 0.178818 7.40287 0.453219 7.64353L4.194 10.9236L3.09103 15.7815C3.01033 16.1387 3.14897 16.5081 3.44534 16.7223C3.60465 16.838 3.79181 16.8959 3.97963 16.8959C4.14102 16.8959 4.30255 16.853 4.44682 16.7666L8.71403 14.2151L12.9805 16.7666C13.2934 16.9537 13.687 16.9365 13.9827 16.7223C14.2791 16.5081 14.4177 16.1387 14.337 15.7815L13.2341 10.9236L16.9748 7.64353C17.2491 7.40287 17.3535 7.02292 17.2406 6.67501Z" fill="#F5C34B"/>
</g>
<defs>
<clipPath id="clip0_1_1557">
<rect width="17.1429" height="17.1429" fill="white" transform="translate(0.142578 0.0996094)"/>
</clipPath>
</defs>
</svg>
