<svg width="15" height="15" viewBox="0 0 15 15" fill="none" xmlns="http://www.w3.org/2000/svg">
<g clip-path="url(#clip0_1_1301)">
<path d="M14.2484 5.57895C14.1543 5.28968 13.8977 5.08488 13.5954 5.05753L9.47152 4.68314L7.84174 0.867508C7.72141 0.587178 7.44762 0.40625 7.14288 0.40625C6.83813 0.40625 6.56423 0.587178 6.44467 0.867508L4.81489 4.68314L0.690371 5.05753C0.388024 5.08543 0.131999 5.29023 0.0373933 5.57895C-0.0566678 5.86822 0.0301997 6.1855 0.258867 6.38604L3.37618 9.11948L2.45704 13.1677C2.38979 13.4654 2.50533 13.7732 2.7523 13.9517C2.88506 14.0481 3.04103 14.0963 3.19754 14.0963C3.33204 14.0963 3.46665 14.0606 3.58686 13.9886L7.14288 11.8624L10.6982 13.9886C10.9591 14.1445 11.287 14.1302 11.5334 13.9517C11.7804 13.7732 11.896 13.4654 11.8287 13.1677L10.9096 9.11948L14.0269 6.38604C14.2554 6.1855 14.3424 5.86887 14.2484 5.57895Z" fill="#F5C34B"/>
</g>
<defs>
<clipPath id="clip0_1_1301">
<rect width="14.2857" height="14.2857" fill="white" transform="translate(0 0.0996094)"/>
</clipPath>
</defs>
</svg>
