<svg width="15" height="15" viewBox="0 0 15 15" fill="none" xmlns="http://www.w3.org/2000/svg">
<g clip-path="url(#clip0_1_1303)">
<path d="M13.9799 5.55548L13.98 5.55549C14.0827 5.56479 14.1702 5.6342 14.2026 5.73357L14.678 5.57895L14.2025 5.73325C14.235 5.8336 14.2049 5.94167 14.1268 6.01021L11.0096 8.74354L10.7857 8.93984L10.8517 9.23019L11.7707 13.2779C11.7941 13.3814 11.754 13.4859 11.6702 13.5465L11.6698 13.5468C11.5854 13.6079 11.4737 13.6128 11.3844 13.5594L7.82919 11.4333L7.57259 11.2798L7.31597 11.4333L3.75996 13.5595L3.75982 13.5596C3.7186 13.5842 3.67297 13.5963 3.62723 13.5963C3.5736 13.5963 3.52106 13.58 3.4759 13.5472L3.47491 13.5465C3.39119 13.486 3.35109 13.3815 3.3744 13.278C3.37442 13.278 3.37443 13.2779 3.37444 13.2779L4.29346 9.23019L4.35938 8.93984L4.13552 8.74354L1.01824 6.01013C1.01823 6.01012 1.01821 6.01011 1.0182 6.0101C0.940317 5.94177 0.910297 5.83354 0.942402 5.7341C0.97529 5.63444 1.06292 5.56507 1.16565 5.55544C1.16577 5.55543 1.16589 5.55542 1.16601 5.55541L5.28978 5.18109L5.58712 5.1541L5.70439 4.87954L7.33417 1.06391L7.33427 1.06367C7.37523 0.967625 7.46813 0.90625 7.57256 0.90625C7.67664 0.90625 7.7701 0.967387 7.81189 1.06455C7.81192 1.06461 7.81194 1.06467 7.81197 1.06473L9.44139 4.87954L9.55866 5.15409L9.856 5.18109L13.9799 5.55548Z" fill="white" stroke="#F5C34B"/>
</g>
<defs>
<clipPath id="clip0_1_1303">
<rect width="14.2857" height="14.2857" fill="white" transform="translate(0.429688 0.0996094)"/>
</clipPath>
</defs>
</svg>
