<svg width="15" height="15" viewBox="0 0 15 15" fill="none" xmlns="http://www.w3.org/2000/svg">
<g clip-path="url(#clip0_1_1309)">
<path d="M14.265 5.55548L14.2652 5.55549C14.3679 5.56479 14.4554 5.6342 14.4877 5.73357L14.9632 5.57895L14.4876 5.73325C14.5202 5.8336 14.4901 5.94167 14.412 6.01021L11.2948 8.74354L11.0709 8.93984L11.1368 9.23019L12.0558 13.2779C12.0792 13.3814 12.0391 13.4859 11.9554 13.5465L11.955 13.5468C11.8705 13.6079 11.7588 13.6128 11.6696 13.5594L8.11435 11.4333L7.85774 11.2798L7.60113 11.4333L4.04512 13.5595L4.04498 13.5596C4.00376 13.5842 3.95813 13.5963 3.91239 13.5963C3.85876 13.5963 3.80622 13.58 3.76106 13.5472L3.76006 13.5465C3.67635 13.486 3.63625 13.3815 3.65956 13.278C3.65957 13.278 3.65958 13.2779 3.65959 13.2779L4.57862 9.23019L4.64454 8.93984L4.42067 8.74354L1.30339 6.01013C1.30338 6.01012 1.30337 6.01011 1.30336 6.0101C1.22547 5.94177 1.19545 5.83354 1.22756 5.7341C1.26045 5.63444 1.34807 5.56507 1.45081 5.55544C1.45093 5.55543 1.45105 5.55542 1.45116 5.55541L5.57493 5.18109L5.87227 5.1541L5.98955 4.87954L7.61932 1.06391L7.61942 1.06367C7.66039 0.967625 7.75329 0.90625 7.85772 0.90625C7.9618 0.90625 8.05526 0.967387 8.09705 1.06455C8.09707 1.06461 8.0971 1.06467 8.09712 1.06473L9.72655 4.87954L9.84382 5.15409L10.1412 5.18109L14.265 5.55548Z" fill="white" stroke="#F5C34B"/>
</g>
<defs>
<clipPath id="clip0_1_1309">
<rect width="14.2857" height="14.2857" fill="white" transform="translate(0.714844 0.0996094)"/>
</clipPath>
</defs>
</svg>
