<svg width="18" height="18" viewBox="0 0 18 18" fill="none" xmlns="http://www.w3.org/2000/svg">
<g clip-path="url(#clip0_1_1555)">
<path d="M17.5258 6.67501C17.4129 6.32789 17.105 6.08213 16.7422 6.04931L11.7936 5.60004L9.83782 1.02128C9.69343 0.684888 9.36488 0.467773 8.99919 0.467773C8.63349 0.467773 8.30481 0.684888 8.16133 1.02128L6.2056 5.60004L1.25618 6.04931C0.893364 6.08279 0.586134 6.32855 0.472606 6.67501C0.359733 7.02213 0.463974 7.40287 0.738375 7.64353L4.47915 10.9236L3.37618 15.7815C3.29549 16.1387 3.43413 16.5081 3.7305 16.7223C3.8898 16.838 4.07697 16.8959 4.26478 16.8959C4.42618 16.8959 4.58771 16.853 4.73197 16.7666L8.99919 14.2151L13.2656 16.7666C13.5786 16.9537 13.9722 16.9365 14.2679 16.7223C14.5642 16.5081 14.7029 16.1387 14.6222 15.7815L13.5192 10.9236L17.26 7.64353C17.5343 7.40287 17.6386 7.02292 17.5258 6.67501Z" fill="#F5C34B"/>
</g>
<defs>
<clipPath id="clip0_1_1555">
<rect width="17.1429" height="17.1429" fill="white" transform="translate(0.427734 0.0996094)"/>
</clipPath>
</defs>
</svg>
