<svg width="16" height="15" viewBox="0 0 16 15" fill="none" xmlns="http://www.w3.org/2000/svg">
<g clip-path="url(#clip0_1_1305)">
<path d="M14.4056 5.55548L14.4058 5.55549C14.5085 5.56479 14.596 5.6342 14.6283 5.73357L15.1038 5.57895L14.6282 5.73325C14.6608 5.8336 14.6307 5.94167 14.5526 6.01021L11.4354 8.74354L11.2115 8.93984L11.2775 9.23019L12.1965 13.2779C12.2199 13.3814 12.1798 13.4859 12.096 13.5465L12.0956 13.5468C12.0112 13.6079 11.8995 13.6128 11.8102 13.5594L8.25497 11.4333L7.99837 11.2798L7.74175 11.4333L4.18574 13.5595L4.1856 13.5596C4.14438 13.5842 4.09875 13.5963 4.05301 13.5963C3.99939 13.5963 3.94684 13.58 3.90168 13.5472L3.90069 13.5465C3.81697 13.486 3.77687 13.3815 3.80019 13.278C3.8002 13.278 3.80021 13.2779 3.80022 13.2779L4.71924 9.23019L4.78516 8.93984L4.5613 8.74354L1.44402 6.01013C1.44401 6.01012 1.444 6.01011 1.44398 6.0101C1.3661 5.94177 1.33608 5.83354 1.36818 5.7341C1.40107 5.63444 1.4887 5.56507 1.59144 5.55544C1.59155 5.55543 1.59167 5.55542 1.59179 5.55541L5.71556 5.18109L6.0129 5.1541L6.13017 4.87954L7.75995 1.06391L7.76005 1.06367C7.80101 0.967625 7.89391 0.90625 7.99834 0.90625C8.10242 0.90625 8.19588 0.967387 8.23767 1.06455C8.2377 1.06461 8.23772 1.06467 8.23775 1.06473L9.86717 4.87954L9.98444 5.15409L10.2818 5.18109L14.4056 5.55548Z" fill="white" stroke="#F5C34B"/>
</g>
<defs>
<clipPath id="clip0_1_1305">
<rect width="14.2857" height="14.2857" fill="white" transform="translate(0.855469 0.0996094)"/>
</clipPath>
</defs>
</svg>
