<svg width="18" height="18" viewBox="0 0 18 18" fill="none" xmlns="http://www.w3.org/2000/svg">
<g clip-path="url(#clip0_1_1559)">
<path d="M17.9555 6.67501C17.8426 6.32789 17.5347 6.08213 17.1719 6.04931L12.2232 5.60004L10.2675 1.02128C10.1231 0.684888 9.79457 0.467773 9.42887 0.467773C9.06318 0.467773 8.7345 0.684888 8.59102 1.02128L6.63529 5.60004L1.68587 6.04931C1.32305 6.08279 1.01582 6.32855 0.902294 6.67501C0.789421 7.02213 0.893662 7.40287 1.16806 7.64353L4.90884 10.9236L3.80587 15.7815C3.72517 16.1387 3.86381 16.5081 4.16019 16.7223C4.31949 16.838 4.50665 16.8959 4.69447 16.8959C4.85587 16.8959 5.0174 16.853 5.16166 16.7666L9.42887 14.2151L13.6953 16.7666C14.0083 16.9537 14.4018 16.9365 14.6976 16.7223C14.9939 16.5081 15.1326 16.1387 15.0519 15.7815L13.9489 10.9236L17.6897 7.64353C17.964 7.40287 18.0683 7.02292 17.9555 6.67501Z" fill="#F5C34B"/>
</g>
<defs>
<clipPath id="clip0_1_1559">
<rect width="17.1429" height="17.1429" fill="white" transform="translate(0.857422 0.0996094)"/>
</clipPath>
</defs>
</svg>
