<svg width="12" height="7" viewBox="0 0 12 7" fill="none" xmlns="http://www.w3.org/2000/svg">
<path d="M6.42341 6.80994L11.7257 1.50758C11.8484 1.38495 11.916 1.22124 11.916 1.04668C11.916 0.872118 11.8484 0.708408 11.7257 0.585771L11.3353 0.195289C11.0809 -0.0587999 10.6675 -0.0587999 10.4135 0.195289L5.96095 4.64781L1.50349 0.190349C1.38076 0.0677115 1.21714 -4.67663e-07 1.04268 -4.75289e-07C0.868025 -4.82923e-07 0.704412 0.0677114 0.58158 0.190348L0.191293 0.58083C0.0685587 0.703564 0.0009441 0.867177 0.000944092 1.04174C0.000944084 1.2163 0.0685586 1.38001 0.191293 1.50264L5.4984 6.80994C5.62152 6.93287 5.78591 7.00039 5.96066 7C6.13609 7.00039 6.30038 6.93287 6.42341 6.80994Z" fill="#041E42"/>
</svg>
