<svg width="10" height="6" viewBox="0 0 10 6" fill="none" xmlns="http://www.w3.org/2000/svg">
<path d="M5.08843 0.535659L8.87576 4.32306C8.96342 4.41066 9.01172 4.52759 9.01172 4.65228C9.01172 4.77696 8.96342 4.8939 8.87576 4.98149L8.59691 5.26041C8.41521 5.4419 8.11989 5.4419 7.93847 5.26041L4.7581 2.08004L1.5742 5.26394C1.48653 5.35154 1.36967 5.3999 1.24505 5.3999C1.1203 5.3999 1.00343 5.35154 0.915694 5.26394L0.636917 4.98502C0.54925 4.89736 0.500954 4.78049 0.500954 4.6558C0.500954 4.53112 0.54925 4.41418 0.636917 4.32659L4.42771 0.535659C4.51565 0.447854 4.63307 0.399626 4.75789 0.399903C4.8832 0.399626 5.00055 0.447854 5.08843 0.535659Z" fill="#041E42"/>
</svg>
