<svg width="12" height="7" viewBox="0 0 12 7" fill="none" xmlns="http://www.w3.org/2000/svg">
<path d="M5.57659 0.19006L0.274333 5.49242C0.151599 5.61505 0.0839844 5.77876 0.0839844 5.95332C0.0839844 6.12788 0.151599 6.29159 0.274333 6.41423L0.664718 6.80471C0.919098 7.0588 1.33254 7.0588 1.58653 6.80471L6.03905 2.35219L10.4965 6.80965C10.6192 6.93229 10.7829 7 10.9573 7C11.132 7 11.2956 6.93229 11.4184 6.80965L11.8087 6.41917C11.9314 6.29644 11.9991 6.13282 11.9991 5.95826C11.9991 5.7837 11.9314 5.61999 11.8087 5.49736L6.5016 0.19006C6.37848 0.0671321 6.21409 -0.000385688 6.03934 1.50153e-06C5.86391 -0.000385692 5.69962 0.0671321 5.57659 0.19006Z" fill="#041E42"/>
</svg>
