<svg width="9" height="6" viewBox="0 0 9 6" fill="none" xmlns="http://www.w3.org/2000/svg">
<path d="M4.58745 5.36424L8.37478 1.57685C8.46245 1.48925 8.51074 1.37231 8.51074 1.24763C8.51074 1.12294 8.46245 1.00601 8.37478 0.918408L8.09593 0.639492C7.91423 0.458 7.61892 0.458 7.43749 0.639492L4.25712 3.81986L1.07322 0.635963C0.985558 0.548365 0.868691 0.5 0.744075 0.5C0.61932 0.5 0.502454 0.548365 0.414718 0.635963L0.135941 0.914879C0.0482731 1.00255 -2.29153e-05 1.11941 -2.29207e-05 1.2441C-2.29262e-05 1.36878 0.048273 1.48572 0.135941 1.57332L3.92673 5.36424C4.01467 5.45205 4.13209 5.50028 4.25692 5.5C4.38222 5.50028 4.49957 5.45205 4.58745 5.36424Z" fill="#041E42"/>
</svg>
