<svg width="9" height="6" viewBox="0 0 9 6" fill="none" xmlns="http://www.w3.org/2000/svg">
<path d="M5.07671 5.36424L8.86404 1.57685C8.9517 1.48925 9 1.37231 9 1.24763C9 1.12294 8.9517 1.00601 8.86404 0.918408L8.58519 0.639492C8.40349 0.458 8.10818 0.458 7.92675 0.639492L4.74638 3.81986L1.56248 0.635963C1.47482 0.548365 1.35795 0.5 1.23333 0.5C1.10858 0.5 0.991712 0.548365 0.903975 0.635963L0.625198 0.914879C0.537531 1.00255 0.489235 1.11941 0.489235 1.2441C0.489235 1.36878 0.537531 1.48572 0.625198 1.57332L4.41599 5.36424C4.50393 5.45205 4.62135 5.50028 4.74617 5.5C4.87148 5.50028 4.98883 5.45205 5.07671 5.36424Z" fill="#626974"/>
</svg>
