<svg width="16" height="16" viewBox="0 0 16 16" fill="none" xmlns="http://www.w3.org/2000/svg">
<g clip-path="url(#clip0_1_935)">
<path d="M13.6569 2.34313C12.1459 0.832156 10.1369 0 8 0C5.86312 0 3.85413 0.832156 2.34313 2.34313C0.832156 3.85416 0 5.86312 0 8C0 10.1369 0.832156 12.1458 2.34313 13.6569C3.85413 15.1678 5.86312 16 8 16C10.1369 16 12.1459 15.1678 13.6569 13.6569C15.1678 12.1458 16 10.1369 16 8C16 5.86312 15.1678 3.85416 13.6569 2.34313ZM15.055 8.32359C14.9619 8.26278 14.8678 8.20366 14.7726 8.14681C12.7366 6.93222 10.3084 6.68331 8.07378 7.45156C7.20019 6.698 6.53719 5.76022 6.12291 4.71722C7.04834 4.41128 8.02244 4.20469 9.02519 4.10253C10.8102 3.92059 12.5882 4.08438 14.1801 4.576C14.7559 5.61175 15.0625 6.78225 15.0625 8C15.0625 8.10828 15.0598 8.21616 15.055 8.32359ZM7.75972 15.058C6.51366 15.0167 5.32369 14.6538 4.28519 14.0091C5.58325 13.3275 6.65747 12.3099 7.42019 11.0314C7.92331 10.1879 8.26194 9.27744 8.42984 8.32125C9.5295 7.9525 10.6804 7.86184 11.7939 8.04125C11.5825 8.99272 11.2609 9.93509 10.835 10.8486C10.071 12.487 9.00941 13.9394 7.75972 15.058ZM12.9939 3.00606C13.1195 3.13166 13.2398 3.26119 13.3547 3.39428C11.9447 3.09428 10.4383 3.01616 8.93013 3.16984C7.86225 3.27866 6.82378 3.49875 5.83581 3.82478C5.69738 3.26934 5.62509 2.69278 5.62509 2.10503C5.62509 1.84644 5.63934 1.58681 5.66722 1.33047C6.40719 1.07231 7.19319 0.9375 8 0.9375C9.88647 0.9375 11.66 1.67212 12.9939 3.00606ZM3.00606 3.00606C3.51191 2.50022 4.08106 2.08078 4.6955 1.75469C4.69044 1.87147 4.68759 1.98834 4.68759 2.10503C4.68759 4.466 5.70947 6.67009 7.50019 8.19494C7.34987 9.02541 7.05306 9.81681 6.61506 10.5511C6.47384 10.7878 6.32031 11.0142 6.15562 11.23C5.46791 10.5718 4.84128 9.82787 4.29047 9.01422C3.24887 7.47566 2.53722 5.76806 2.23237 4.07606C2.22556 4.03825 2.21394 4.00262 2.19903 3.969C2.43678 3.62834 2.70613 3.30603 3.00606 3.00606ZM0.9375 8C0.9375 7.01581 1.13788 6.06253 1.51856 5.18619C1.91194 6.68981 2.59244 8.17841 3.51409 9.53981C4.11025 10.4204 4.79038 11.2253 5.53806 11.9366C4.93363 12.5411 4.22256 13.0297 3.42778 13.3828C3.28294 13.2594 3.14209 13.13 3.00606 12.9939C1.67212 11.66 0.9375 9.88647 0.9375 8ZM12.9939 12.9939C11.9461 14.0418 10.6269 14.7196 9.19491 14.9622C10.1878 13.8983 11.0373 12.633 11.6846 11.2448C12.1382 10.2719 12.4812 9.26728 12.7073 8.25187C13.2553 8.41753 13.7875 8.65081 14.2922 8.95191C14.5118 9.08288 14.725 9.22616 14.9286 9.37931C14.6606 10.7401 13.9967 11.9912 12.9939 12.9939Z" fill="#041E42"/>
</g>
<defs>
<clipPath id="clip0_1_935">
<rect width="16" height="16" fill="white"/>
</clipPath>
</defs>
</svg>
